<?xml version="1.0" encoding="utf-8"?>
<!-- Generator: Adobe Illustrator 15.1.0, SVG Export Plug-In  -->
<!DOCTYPE svg PUBLIC "-//W3C//DTD SVG 1.1//EN" "http://www.w3.org/Graphics/SVG/1.1/DTD/svg11.dtd" [
	<!ENTITY ns_flows "http://ns.adobe.com/Flows/1.0/">
]>
<svg version="1.1"
	 xmlns="http://www.w3.org/2000/svg" xmlns:xlink="http://www.w3.org/1999/xlink" xmlns:a="http://ns.adobe.com/AdobeSVGViewerExtensions/3.0/"
	 x="0px" y="0px" width="22px" height="13px" viewBox="264.502 400.5 22 13" enable-background="new 264.502 400.5 22 13"
	 xml:space="preserve">
<defs>
</defs>
<path fill-rule="evenodd" clip-rule="evenodd" fill="#FFFFFF" d="M286.498,404.064c0-0.359-0.294-0.649-0.657-0.649
	s-0.657,0.291-0.657,0.649l0.003,6.854c-0.003,1.022-0.226,1.277-1.333,1.277l1.325-0.009l0.008-1.197l0.001,1.206l-19.369,0.005
	v-0.014l1.323,0.008c-0.994,0-1.274-0.208-1.324-0.989l-0.004-8.704l0.015,0.596c0-0.987,0.188-1.267,1.155-1.293l18.537-0.005
	c0.363,0,0.657-0.291,0.657-0.649s-0.294-0.65-0.657-0.65l-19.766,0.006c-0.696,0.031-1.252,0.593-1.254,1.288l0.005,10.459
	c0.031,0.69,0.602,1.242,1.307,1.242h0.698v0.005l17.975-0.004v-0.001h0.698c0.725,0,1.313-0.582,1.313-1.299v-0.65h0.004
	L286.498,404.064z M265.815,401.805h0.415l-0.415,0.002V401.805z M274.679,410.733c0,0.449,0.367,0.812,0.821,0.812
	s0.821-0.363,0.821-0.812c0-0.449-0.367-0.812-0.821-0.812S274.679,410.284,274.679,410.733"/>
<rect fill="none" width="595.28" height="841.89"/>
</svg>
