<?xml version="1.0" encoding="utf-8"?>
<!-- Generator: Adobe Illustrator 15.1.0, SVG Export Plug-In  -->
<!DOCTYPE svg PUBLIC "-//W3C//DTD SVG 1.1//EN" "http://www.w3.org/Graphics/SVG/1.1/DTD/svg11.dtd" [
	<!ENTITY ns_flows "http://ns.adobe.com/Flows/1.0/">
]>
<svg version="1.1"
	 xmlns="http://www.w3.org/2000/svg" xmlns:xlink="http://www.w3.org/1999/xlink" xmlns:a="http://ns.adobe.com/AdobeSVGViewerExtensions/3.0/"
	 x="0px" y="0px" width="16px" height="16px" viewBox="-0.424 0 16 16" enable-background="new -0.424 0 16 16"
	 xml:space="preserve">
<defs>
</defs>
<g>
	<g>
		<path fill-rule="evenodd" clip-rule="evenodd" fill="#FFFFFF" d="M7.788,0C3.487,0,0,3.582,0,8c0,1.398,0.351,2.712,0.965,3.855
			l0.003-0.004c0.089,0.297,0.348,0.516,0.667,0.516c0.391,0,0.708-0.324,0.708-0.727l-0.007-0.068c0-0.304-0.183-0.563-0.442-0.672
			l0.116-0.118C1.62,9.934,1.396,8.99,1.396,7.989c0-3.621,2.857-6.557,6.382-6.557s6.382,2.936,6.382,6.557
			c0,3.622-2.857,6.558-6.382,6.558c-1.406,0-2.702-0.475-3.757-1.266c-0.129-0.141-0.309-0.23-0.512-0.23
			c-0.391,0-0.708,0.324-0.708,0.727l0.007,0.068c0,0.326,0.213,0.592,0.502,0.684C4.578,15.45,6.118,16,7.788,16
			c4.301,0,7.788-3.582,7.788-8C15.576,3.582,12.089,0,7.788,0z M7.778,6.484c-0.391,0-0.708,0.326-0.708,0.728l0.002,4.431
			c0,0.4,0.317,0.727,0.708,0.727c0.392,0,0.708-0.326,0.708-0.727L8.486,7.211C8.486,6.81,8.169,6.484,7.778,6.484z M8.539,4.351
			c0-0.431-0.34-0.781-0.761-0.781c-0.42,0-0.76,0.35-0.76,0.781l0.003,0.024c0,0.432,0.34,0.781,0.76,0.781
			c0.42,0,0.761-0.35,0.761-0.781L8.539,4.351z"/>
	</g>
</g>
</svg>
