<?xml version="1.0" encoding="utf-8"?>
<!-- Generator: Adobe Illustrator 15.1.0, SVG Export Plug-In  -->
<!DOCTYPE svg PUBLIC "-//W3C//DTD SVG 1.1//EN" "http://www.w3.org/Graphics/SVG/1.1/DTD/svg11.dtd" [
	<!ENTITY ns_flows "http://ns.adobe.com/Flows/1.0/">
]>
<svg version="1.1"
	 xmlns="http://www.w3.org/2000/svg" xmlns:xlink="http://www.w3.org/1999/xlink" xmlns:a="http://ns.adobe.com/AdobeSVGViewerExtensions/3.0/"
	 x="0px" y="0px" width="16px" height="18px" viewBox="-0.821 -1.06 16 18" enable-background="new -0.821 -1.06 16 18"
	 xml:space="preserve">
<defs>
</defs>
<g>
	<g>
		<path fill-rule="evenodd" clip-rule="evenodd" fill="#FFFFFF" d="M7.188,2.166V2.117l1.757,3.031l3.508,0.722l-2.407,2.525
			l0.159,1.704c-0.002,0.05,0.003,0.096,0.014,0.144l0.014,0.148l0.02-0.02c0.065,0.142,0.185,0.258,0.343,0.313
			c0.312,0.109,0.653-0.055,0.763-0.365l0.014-0.054c0.007-0.02,0.004-0.04,0.008-0.06h0.032l-0.015-0.12
			c0.001-0.056-0.007-0.108-0.021-0.161l-0.13-1.036l3.111-3.314c-0.014-0.233-0.115-0.445-0.278-0.609l-4.384-0.84L7.433,0.035
			C7.27-0.011,7.102-0.011,6.938,0.031L4.675,4.126L0.277,4.969C0.118,5.129,0.016,5.334,0,5.562l3.124,3.327l-0.56,4.467
			c0.132,0.192,0.33,0.322,0.555,0.378l4.066-1.903l0.795,0.372v-0.007c0.013,0.006,0.022,0.017,0.037,0.021
			c0.321,0.112,0.674-0.057,0.787-0.378l0.014-0.056c0.107-0.304-0.045-0.63-0.337-0.76l0.01-0.022l-1.303-0.568l-3.31,1.556
			l0.488-3.606L2.034,5.916L5.47,5.17L7.188,2.166z M14.328,10.845c-0.245-0.244-0.643-0.244-0.888,0l-2.083,2.068l-0.829-0.819
			c-0.243-0.244-0.641-0.244-0.886,0c-0.244,0.244-0.244,0.641,0,0.884l1.207,1.195c0.019,0.026,0.028,0.056,0.052,0.079
			c0.126,0.125,0.292,0.184,0.457,0.18c0.166,0.004,0.331-0.055,0.457-0.18c0.023-0.023,0.033-0.054,0.053-0.079l2.46-2.444
			C14.571,11.486,14.571,11.089,14.328,10.845z"/>
	</g>
</g>
</svg>
