<?xml version="1.0" encoding="utf-8"?>
<!-- Generator: Adobe Illustrator 15.1.0, SVG Export Plug-In  -->
<!DOCTYPE svg PUBLIC "-//W3C//DTD SVG 1.1//EN" "http://www.w3.org/Graphics/SVG/1.1/DTD/svg11.dtd" [
	<!ENTITY ns_flows "http://ns.adobe.com/Flows/1.0/">
]>
<svg version="1.1"
	 xmlns="http://www.w3.org/2000/svg" xmlns:xlink="http://www.w3.org/1999/xlink" xmlns:a="http://ns.adobe.com/AdobeSVGViewerExtensions/3.0/"
	 x="0px" y="0px" width="16px" height="16px" viewBox="-0.687 -0.729 16 16" enable-background="new -0.687 -0.729 16 16"
	 xml:space="preserve">
<defs>
</defs>
<g>
	<g>
		<path fill-rule="evenodd" clip-rule="evenodd" fill="#FFFFFF" d="M13.897,10.897c-0.404,0-0.732,0.324-0.732,0.728l0.001,0.173
			c-0.026,1.022-0.303,1.291-1.479,1.292L1.469,13.096v-0.017l1.474,0.011c-1.108,0-1.42-0.232-1.475-1.109L1.463,2.24L1.48,2.908
			c0-1.105,0.209-1.418,1.286-1.448l8.967-0.004c1.134,0.008,1.407,0.282,1.433,1.291l-0.001,0.173c0,0.401,0.328,0.727,0.732,0.727
			s0.73-0.326,0.73-0.727l0.002-0.738h-0.002V1.454c0-0.8-0.65-1.449-1.455-1.454L1.397,0.005C0.621,0.04,0.001,0.671,0,1.45
			l0.006,11.703c0.035,0.773,0.671,1.391,1.457,1.391h0.777v0.006l10.148-0.005v-0.001h0.777c0.809,0,1.463-0.651,1.463-1.455
			v-0.727h0.002l-0.002-0.737C14.628,11.222,14.302,10.897,13.897,10.897z M13.17,1.454l-0.003,0.877l-0.006-0.868l-1.232-0.008
			L13.17,1.454z M1.463,1.46H1.93L1.463,1.463V1.46z M11.701,13.09l1.46-0.011l0.006-0.867l0.003,0.877L11.701,13.09z M14.575,6.078
			L6.801,6.083l1.719-1.634c0.287-0.272,0.287-0.713,0-0.984c-0.288-0.272-0.753-0.272-1.041,0L4.608,6.195
			c-0.031,0.021-0.067,0.033-0.096,0.06C4.365,6.395,4.296,6.58,4.3,6.763C4.296,6.946,4.365,7.13,4.513,7.27
			c0.033,0.032,0.073,0.05,0.11,0.075l2.857,2.716c0.288,0.272,0.753,0.272,1.041,0c0.287-0.271,0.287-0.711,0-0.983L6.836,7.475
			l7.739-0.005c0.408,0,0.736-0.312,0.736-0.696C15.312,6.389,14.983,6.078,14.575,6.078z"/>
	</g>
</g>
</svg>
