<?xml version="1.0" encoding="utf-8"?>
<!-- Generator: Adobe Illustrator 15.1.0, SVG Export Plug-In  -->
<!DOCTYPE svg PUBLIC "-//W3C//DTD SVG 1.1//EN" "http://www.w3.org/Graphics/SVG/1.1/DTD/svg11.dtd" [
	<!ENTITY ns_flows "http://ns.adobe.com/Flows/1.0/">
]>
<svg version="1.1"
	 xmlns="http://www.w3.org/2000/svg" xmlns:xlink="http://www.w3.org/1999/xlink" xmlns:a="http://ns.adobe.com/AdobeSVGViewerExtensions/3.0/"
	 x="0px" y="0px" width="24px" height="24px" viewBox="0 0 24 24" enable-background="new 0 0 24 24" xml:space="preserve">
<defs>
</defs>
<circle fill="#F9A61C" cx="12" cy="12" r="12"/>
<path fill-rule="evenodd" clip-rule="evenodd" fill="#FFFFFF" d="M11.784,8.487c0.956,0,1.855,0.425,2.517,1.086v0.004
	c0-0.319,0.215-0.559,0.51-0.559h0.076c0.461,0,0.56,0.439,0.56,0.579l0.003,4.944c-0.034,0.322,0.333,0.488,0.537,0.281
	c0.794-0.818,1.74-4.192-0.492-6.152c-2.087-1.822-4.884-1.521-6.369-0.497c-1.583,1.091-2.597,3.504-1.609,5.77
	c1.068,2.475,4.136,3.211,5.955,2.477c0.924-0.373,1.35,0.873,0.391,1.283c-1.446,0.615-5.476,0.553-7.358-2.709
	c-1.272-2.2-1.204-6.074,2.168-8.083c2.582-1.538,5.983-1.109,8.034,1.033c2.146,2.241,2.02,6.433-0.07,8.066
	c-0.948,0.74-2.359,0.02-2.346-1.061l-0.014-0.354c-0.658,0.655-1.536,1.037-2.492,1.037c-1.89,0-3.557-1.664-3.557-3.551
	C8.227,10.17,9.894,8.487,11.784,8.487L11.784,8.487z M14.162,11.944c-0.071-1.385-1.1-2.217-2.338-2.217h-0.048
	c-1.434,0-2.227,1.127-2.227,2.405c0,1.433,0.961,2.337,2.219,2.337c1.405,0,2.33-1.029,2.394-2.245V11.944L14.162,11.944z"/>
</svg>
