<?xml version="1.0" encoding="utf-8"?>
<!-- Generator: Adobe Illustrator 15.1.0, SVG Export Plug-In  -->
<!DOCTYPE svg PUBLIC "-//W3C//DTD SVG 1.1//EN" "http://www.w3.org/Graphics/SVG/1.1/DTD/svg11.dtd" [
	<!ENTITY ns_flows "http://ns.adobe.com/Flows/1.0/">
]>
<svg version="1.1"
	 xmlns="http://www.w3.org/2000/svg" xmlns:xlink="http://www.w3.org/1999/xlink" xmlns:a="http://ns.adobe.com/AdobeSVGViewerExtensions/3.0/"
	 x="0px" y="0px" width="17px" height="16px" viewBox="-0.451 0 17 16" enable-background="new -0.451 0 17 16"
	 xml:space="preserve">
<defs>
</defs>
<g>
	<g>
		<path fill-rule="evenodd" clip-rule="evenodd" fill="#FFFFFF" d="M8.275,0C3.705,0,0,3.582,0,8c0,1.398,0.373,2.711,1.025,3.854
			l0.004-0.004c0.095,0.297,0.37,0.517,0.708,0.517c0.416,0,0.752-0.325,0.752-0.728l-0.007-0.067c0-0.305-0.195-0.564-0.47-0.672
			l0.123-0.119C1.721,9.934,1.482,8.989,1.482,7.989c0-3.621,3.036-6.557,6.781-6.557c3.745,0,6.782,2.936,6.782,6.557
			s-3.037,6.557-6.782,6.557c-1.495,0-2.871-0.475-3.992-1.267c-0.137-0.14-0.328-0.229-0.543-0.229
			c-0.416,0-0.752,0.325-0.752,0.727l0.007,0.068c0,0.326,0.227,0.592,0.533,0.684C4.863,15.449,6.5,16,8.275,16
			c4.569,0,8.274-3.582,8.274-8C16.549,3.582,12.844,0,8.275,0z M9.375,5.191c-0.264-0.273-0.689-0.273-0.952,0L5.783,7.966
			C5.77,7.979,5.752,7.983,5.74,7.996C5.606,8.135,5.542,8.317,5.544,8.499C5.542,8.68,5.606,8.862,5.74,9.001
			C5.752,9.014,5.77,9.019,5.783,9.03l2.618,2.752c0.262,0.273,0.689,0.273,0.951,0c0.264-0.272,0.264-0.715,0-0.988L7.17,8.499
			L9.375,6.18C9.637,5.907,9.637,5.464,9.375,5.191z"/>
	</g>
</g>
</svg>
