<?xml version="1.0" encoding="utf-8"?>
<!-- Generator: Adobe Illustrator 15.1.0, SVG Export Plug-In  -->
<!DOCTYPE svg PUBLIC "-//W3C//DTD SVG 1.1//EN" "http://www.w3.org/Graphics/SVG/1.1/DTD/svg11.dtd" [
	<!ENTITY ns_flows "http://ns.adobe.com/Flows/1.0/">
]>
<svg version="1.1"
	 xmlns="http://www.w3.org/2000/svg" xmlns:xlink="http://www.w3.org/1999/xlink" xmlns:a="http://ns.adobe.com/AdobeSVGViewerExtensions/3.0/"
	 x="0px" y="0px" width="15px" height="18px" viewBox="-0.743 -0.708 15 18" enable-background="new -0.743 -0.708 15 18"
	 xml:space="preserve">
<defs>
</defs>
<g>
	<g>
		<path fill-rule="evenodd" clip-rule="evenodd" fill="#FFFFFF" d="M2.988,5.285l7.53-0.007c0.414,0,0.75-0.338,0.75-0.754
			c0-0.417-0.336-0.754-0.75-0.754l-7.53,0.007c-0.414,0-0.75,0.338-0.75,0.754C2.239,4.947,2.574,5.285,2.988,5.285z
			 M13.507,10.456l-0.006-9.012c-0.034-0.8-0.684-1.439-1.485-1.444L1.438,0.006C0.642,0.043,0.007,0.699,0.007,1.507v0.801H0
			l0.006,11.968h0.001v0.803c0,0.832,0.671,1.506,1.5,1.506h0.75v0.006l2.214-0.004c0.414,0,0.75-0.338,0.75-0.756
			c0-0.416-0.336-0.752-0.75-0.752l-2.408,0.004l0.943-0.023c-1.203,0-1.5-0.227-1.5-1.508l0.01,1.532h-0.01L1.5,1.513h0.016
			l-0.01,1.52c0-1.28,0.297-1.508,1.5-1.508l-0.51-0.013l8.7-0.004l-0.689,0.017c1.154,0,1.471,0.22,1.495,1.365l0.005,6.905
			L9.053,9.798V9.8H8.256c-0.828,0-1.499,0.676-1.499,1.508v0.754H6.751l0.005,3.694c-0.024,0.22,0.037,0.446,0.204,0.614
			c0.075,0.075,0.161,0.13,0.253,0.167c0.09,0.038,0.188,0.06,0.292,0.06c0.234,0,0.435-0.114,0.572-0.284l5.098-5.139
			c0.007-0.005,0.012-0.013,0.02-0.018c0.194-0.137,0.33-0.353,0.33-0.608C13.525,10.515,13.511,10.488,13.507,10.456z
			 M12.001,2.174l-0.004-0.667h0.004V2.174z M8.254,14l-0.001-1.234c0.007-1.164,0.268-1.458,1.521-1.458l-1.513,0.01l-0.01,1.299
			l-0.001-1.31l2.678-0.003L8.254,14z M2.988,8.3l7.53-0.007c0.414,0,0.75-0.337,0.75-0.754c0-0.417-0.336-0.753-0.75-0.753
			l-7.53,0.006c-0.414,0-0.75,0.338-0.75,0.754C2.239,7.962,2.574,8.3,2.988,8.3z"/>
	</g>
</g>
</svg>
