<?xml version="1.0" encoding="utf-8"?>
<!-- Generator: Adobe Illustrator 15.1.0, SVG Export Plug-In  -->
<!DOCTYPE svg PUBLIC "-//W3C//DTD SVG 1.1//EN" "http://www.w3.org/Graphics/SVG/1.1/DTD/svg11.dtd" [
	<!ENTITY ns_flows "http://ns.adobe.com/Flows/1.0/">
]>
<svg version="1.1"
	 xmlns="http://www.w3.org/2000/svg" xmlns:xlink="http://www.w3.org/1999/xlink" xmlns:a="http://ns.adobe.com/AdobeSVGViewerExtensions/3.0/"
	 x="0px" y="0px" width="16px" height="16px" viewBox="-0.683 -0.728 16 16" enable-background="new -0.683 -0.728 16 16"
	 xml:space="preserve">
<defs>
</defs>
<g>
	<g>
		<path fill-rule="evenodd" clip-rule="evenodd" fill="#FFFFFF" d="M13.817,10.898c-0.4,0-0.727,0.325-0.727,0.728l0.001,0.175
			c-0.026,1.022-0.301,1.29-1.474,1.29l1.469-0.009l0.006-0.868l0.003,0.877L1.46,13.097v-0.016l1.466,0.009
			c-1.101,0-1.411-0.231-1.466-1.107L1.455,2.231l0.017,0.677c0-1.105,0.208-1.418,1.279-1.448l8.917-0.005
			c1.128,0.008,1.399,0.283,1.425,1.29l-0.001,0.175c0,0.402,0.326,0.728,0.727,0.728c0.402,0,0.729-0.326,0.729-0.728l0.002-0.738
			h-0.002V1.454c0-0.801-0.648-1.449-1.447-1.454L1.389,0.005C0.618,0.041,0.001,0.671,0,1.45l0.006,11.706
			c0.035,0.771,0.667,1.389,1.448,1.389h0.773v0.007l10.091-0.006v-0.001h0.773c0.803,0,1.455-0.651,1.455-1.454v-0.728h0.002
			l-0.002-0.737C14.546,11.223,14.22,10.898,13.817,10.898z M13.096,1.454l-0.003,0.877l-0.006-0.868l-1.226-0.008L13.096,1.454z
			 M1.454,1.46l0.465,0L1.454,1.463V1.46z M15.03,6.73c-0.028-0.028-0.063-0.041-0.095-0.063l-2.841-2.853
			c-0.283-0.284-0.744-0.284-1.029,0c-0.283,0.284-0.283,0.745,0,1.028l1.701,1.708L5.08,6.545c-0.402,0-0.727,0.326-0.727,0.727
			S4.678,8,5.08,8l7.651,0.006l-1.666,1.673c-0.283,0.284-0.283,0.744,0,1.028c0.285,0.285,0.746,0.285,1.029,0L14.92,7.87
			c0.037-0.025,0.077-0.045,0.11-0.079c0.146-0.146,0.214-0.339,0.209-0.531C15.244,7.069,15.176,6.876,15.03,6.73z"/>
	</g>
</g>
</svg>
