<?xml version="1.0" encoding="utf-8"?>
<!-- Generator: Adobe Illustrator 15.1.0, SVG Export Plug-In  -->
<!DOCTYPE svg PUBLIC "-//W3C//DTD SVG 1.1//EN" "http://www.w3.org/Graphics/SVG/1.1/DTD/svg11.dtd" [
	<!ENTITY ns_flows "http://ns.adobe.com/Flows/1.0/">
]>
<svg version="1.1"
	 xmlns="http://www.w3.org/2000/svg" xmlns:xlink="http://www.w3.org/1999/xlink" xmlns:a="http://ns.adobe.com/AdobeSVGViewerExtensions/3.0/"
	 x="0px" y="0px" width="16px" height="20px" viewBox="0 -5.47 16 20" enable-background="new 0 -5.47 16 20" xml:space="preserve" preserveAspectRatio="none">
<defs>
</defs>
<path fill-rule="evenodd" clip-rule="evenodd" fill="#2E2B34" d="M16,8.557l-1.113,0.968l0,0l0,0l-0.009,0.006l-0.033-0.006h-5.41
	l1.01,3.521l0.004,0.005l-0.569,1.212L9.86,14.265l-0.002,0.008L7.769,15l-0.001-0.002L7.767,15L6.5,14.511l-0.003-0.02L3.328,8.844
	H2.773H1.386H0v-1.36V1.361V0h1.386h1.387H4.16h8.95l0.009,0.013l0,0l1.045,0.674L14.16,0.712l1.785,7.763L16,8.557z M2.773,1.361
	H1.386v6.123h1.387V1.361z M12.888,1.374l-0.019-0.013H4.16v6.035l3.469,6.15l0.043,0.015l1.275-0.425l0.026-0.064l-1.39-4.902
	L7.63,8.17L7.627,8.165h6.851L12.888,1.374z"/>
</svg>
