<?xml version="1.0" encoding="utf-8"?>
<!-- Generator: Adobe Illustrator 15.1.0, SVG Export Plug-In  -->
<!DOCTYPE svg PUBLIC "-//W3C//DTD SVG 1.1//EN" "http://www.w3.org/Graphics/SVG/1.1/DTD/svg11.dtd" [
	<!ENTITY ns_flows "http://ns.adobe.com/Flows/1.0/">
]>
<svg version="1.1"
	 xmlns="http://www.w3.org/2000/svg" xmlns:xlink="http://www.w3.org/1999/xlink" xmlns:a="http://ns.adobe.com/AdobeSVGViewerExtensions/3.0/"
	 x="0px" y="0px" width="24px" height="24px" viewBox="0 0 24 24" enable-background="new 0 0 24 24" xml:space="preserve">
<defs>
</defs>
<circle fill="#37609F" cx="12" cy="12" r="12"/>
<path fill-rule="evenodd" clip-rule="evenodd" fill="#FFFFFF" d="M11.828,16.629h0.961c0,0,0.291-0.031,0.44-0.193
	c0.135-0.15,0.131-0.432,0.131-0.432s-0.019-1.312,0.58-1.504c0.59-0.191,1.35,1.27,2.152,1.828
	c0.607,0.424,1.068,0.332,1.068,0.332l2.149-0.031c0,0,1.124-0.07,0.591-0.969c-0.043-0.072-0.311-0.666-1.598-1.881
	c-1.348-1.272-1.166-1.065,0.456-3.266c0.988-1.339,1.384-2.159,1.26-2.509c-0.117-0.333-0.845-0.246-0.845-0.246l-2.418,0.016
	c0,0-0.18-0.025-0.313,0.056c-0.131,0.08-0.214,0.265-0.214,0.265s-0.383,1.036-0.894,1.919c-1.077,1.861-1.508,1.96-1.684,1.843
	c-0.41-0.269-0.308-1.081-0.308-1.659c0-1.804,0.269-2.556-0.523-2.75c-0.263-0.065-0.457-0.107-1.129-0.115
	c-0.863-0.009-1.593,0.004-2.007,0.208C9.409,7.68,9.197,7.985,9.327,8.002c0.16,0.022,0.522,0.1,0.713,0.365
	c0.248,0.343,0.24,1.113,0.24,1.113s0.142,2.123-0.333,2.387c-0.326,0.181-0.773-0.189-1.733-1.877C7.722,9.127,7.35,8.17,7.35,8.17
	s-0.072-0.178-0.2-0.274C6.996,7.78,6.779,7.744,6.779,7.744L4.48,7.758c0,0-0.345,0.011-0.471,0.164C3.895,8.057,4,8.339,4,8.339
	s1.799,4.283,3.837,6.441C9.706,16.76,11.828,16.629,11.828,16.629z"/>
</svg>
