<svg xmlns="http://www.w3.org/2000/svg" viewBox="0 0 250 250" enable-background="new 0 0 250 250"><circle fill-rule="evenodd" clip-rule="evenodd" fill="#F2F2F2" cx="125" cy="125" r="125"/><path fill-rule="evenodd" clip-rule="evenodd" fill="#898989" d="M96.6 164.4v-78.7c0-3.7 3.8-6.4 7.5-4.2 3 1.7 63 36.3 68.1 39.3 3.4 1.9 3.3 6.6 0 8.5-3.7 2.2-63.9 36.9-68.3 39.3-3.1 1.8-7.3-.2-7.3-4.2zM15.6 125c0 60.3 49.1 109.4 109.4 109.4s109.4-49.1 109.4-109.4-49.1-109.4-109.4-109.4-109.4 49.1-109.4 109.4zm8.8 0c0-55.5 45.1-100.6 100.6-100.6s100.6 45.1 100.6 100.6-45.1 100.6-100.6 100.6-100.6-45.1-100.6-100.6z"/></svg>