<?xml version="1.0" encoding="utf-8"?>
<!-- Generator: Adobe Illustrator 15.1.0, SVG Export Plug-In  -->
<!DOCTYPE svg PUBLIC "-//W3C//DTD SVG 1.1//EN" "http://www.w3.org/Graphics/SVG/1.1/DTD/svg11.dtd" [
	<!ENTITY ns_flows "http://ns.adobe.com/Flows/1.0/">
]>
<svg version="1.1"
	 xmlns="http://www.w3.org/2000/svg" xmlns:xlink="http://www.w3.org/1999/xlink" xmlns:a="http://ns.adobe.com/AdobeSVGViewerExtensions/3.0/"
	 x="0px" y="0px" width="12px" height="13px" viewBox="0 0 12 13" enable-background="new 0 0 12 13" xml:space="preserve">
<defs>
</defs>
<path fill-rule="evenodd" clip-rule="evenodd" fill="#2E2B34" d="M12,12.411C12,12.736,11.73,13,11.398,13
	c-0.333,0-0.603-0.264-0.603-0.589v-0.008H10.76c-0.29-2.307-2.258-4.101-4.681-4.138C6.052,8.266,6.027,8.273,6,8.273
	c-0.026,0-0.051-0.008-0.077-0.008C3.5,8.303,1.533,10.097,1.242,12.403H1.208l0.001,0.008c0,0.325-0.27,0.589-0.602,0.589
	c-0.333,0-0.602-0.264-0.602-0.589L0,12.355c0-0.099,0.031-0.188,0.074-0.269c0.318-2.04,1.676-3.743,3.552-4.534
	C2.513,6.808,1.781,5.557,1.781,4.136C1.781,1.852,3.671,0,6,0c2.331,0,4.219,1.852,4.219,4.136c0,1.419-0.73,2.671-1.842,3.416
	c1.882,0.793,3.244,2.504,3.556,4.555c0.036,0.077,0.062,0.159,0.062,0.249L12,12.411z M9.014,4.138c0-1.632-1.35-2.955-3.014-2.955
	c-1.665,0-3.014,1.322-3.014,2.955c0,1.632,1.35,2.955,3.014,2.955C7.664,7.093,9.014,5.77,9.014,4.138z"/>
</svg>
