<?xml version="1.0" encoding="utf-8"?>
<!-- Generator: Adobe Illustrator 15.1.0, SVG Export Plug-In  -->
<!DOCTYPE svg PUBLIC "-//W3C//DTD SVG 1.1//EN" "http://www.w3.org/Graphics/SVG/1.1/DTD/svg11.dtd" [
	<!ENTITY ns_flows "http://ns.adobe.com/Flows/1.0/">
]>
<svg version="1.1"
	 xmlns="http://www.w3.org/2000/svg" xmlns:xlink="http://www.w3.org/1999/xlink" xmlns:a="http://ns.adobe.com/AdobeSVGViewerExtensions/3.0/"
	 x="0px" y="0px" width="16px" height="16px" viewBox="-0.424 0 16 16" enable-background="new -0.424 0 16 16"
	 xml:space="preserve">
<defs>
</defs>
<g>
	<g>
		<path fill-rule="evenodd" clip-rule="evenodd" fill="#302D36" d="M7.788,0C3.486,0,0,3.582,0,8c0,1.398,0.351,2.712,0.965,3.855
			l0.003-0.004c0.089,0.297,0.348,0.516,0.666,0.516c0.392,0,0.708-0.325,0.708-0.727l-0.006-0.068c0-0.305-0.183-0.563-0.442-0.672
			l0.116-0.118C1.62,9.934,1.395,8.989,1.395,7.989c0-3.621,2.857-6.557,6.382-6.557s6.382,2.936,6.382,6.557
			c0,3.622-2.857,6.558-6.382,6.558c-1.407,0-2.703-0.475-3.757-1.268c-0.129-0.14-0.309-0.229-0.512-0.229
			c-0.391,0-0.708,0.325-0.708,0.727l0.006,0.068c0,0.326,0.213,0.592,0.501,0.684C4.577,15.449,6.117,16,7.788,16
			c4.301,0,7.788-3.581,7.788-8C15.576,3.582,12.089,0,7.788,0z M7.796,2.916c-0.391,0-0.708,0.325-0.708,0.727L7.081,7.946
			C7.08,7.965,7.07,7.981,7.07,8.001c0,0.104,0.023,0.203,0.062,0.292c0.102,0.273,0.355,0.468,0.657,0.468
			c0.056,0,0.106-0.02,0.159-0.033l4.105,0.006c0.392,0,0.708-0.325,0.708-0.727c0-0.401-0.316-0.727-0.708-0.727L8.499,7.275
			l0.005-3.633C8.503,3.241,8.187,2.916,7.796,2.916z"/>
	</g>
</g>
</svg>
