<?xml version="1.0" encoding="utf-8"?>
<!-- Generator: Adobe Illustrator 15.1.0, SVG Export Plug-In  -->
<!DOCTYPE svg PUBLIC "-//W3C//DTD SVG 1.1//EN" "http://www.w3.org/Graphics/SVG/1.1/DTD/svg11.dtd" [
	<!ENTITY ns_flows "http://ns.adobe.com/Flows/1.0/">
]>
<svg version="1.1"
	 xmlns="http://www.w3.org/2000/svg" xmlns:xlink="http://www.w3.org/1999/xlink" xmlns:a="http://ns.adobe.com/AdobeSVGViewerExtensions/3.0/"
	 x="0px" y="0px" width="16px" height="15px" viewBox="-0.718 -0.79 16 15" enable-background="new -0.718 -0.79 16 15"
	 xml:space="preserve">
<defs>
</defs>
<g>
	<g>
		<path fill-rule="evenodd" clip-rule="evenodd" fill="#2E2B34" d="M14.542,6.326l-0.006-4.983C14.426,0.586,13.801,0.004,13.037,0
			L1.462,0.006C0.65,0.043,0.003,0.726,0,1.57l0.007,7.965c0.039,0.835,0.702,1.502,1.522,1.502h0.813v0.004l2.258-0.004
			c0.422,0,0.765-0.354,0.765-0.788c0-0.436-0.343-0.789-0.765-0.789L1.537,9.466V9.449l1.07,0.008
			C1.735,9.439,1.568,9.321,1.536,8.63L1.531,2.559c0.024-0.8,0.174-0.951,1.022-0.976l10.453-0.006l0.002,1.106L13,1.586
			l-1.021-0.007c0.89,0.019,1.014,0.171,1.029,1.224l0.004,2.67c-0.001,0.012-0.007,0.021-0.007,0.034l0.007,3.955L7.659,9.467
			H7.632c-0.245,0-0.453,0.126-0.593,0.31l-3.021,3.087c-0.299,0.309-0.299,0.808,0,1.115c0.299,0.309,0.784,0.309,1.083,0
			l2.87-2.935l4.245-0.005v-0.002h0.813c0.785,0,1.425-0.612,1.512-1.398l-0.005-3.284C14.537,6.344,14.542,6.336,14.542,6.326z
			 M1.534,1.586L1.531,2.088l0-0.505h0.485L1.534,1.586z M12.025,9.456L13,9.449l0.007-1.035
			C12.987,9.314,12.853,9.438,12.025,9.456z"/>
	</g>
</g>
</svg>
