<?xml version="1.0" encoding="utf-8"?>
<!-- Generator: Adobe Illustrator 15.1.0, SVG Export Plug-In  -->
<!DOCTYPE svg PUBLIC "-//W3C//DTD SVG 1.1//EN" "http://www.w3.org/Graphics/SVG/1.1/DTD/svg11.dtd" [
	<!ENTITY ns_flows "http://ns.adobe.com/Flows/1.0/">
]>
<svg version="1.1"
	 xmlns="http://www.w3.org/2000/svg" xmlns:xlink="http://www.w3.org/1999/xlink" xmlns:a="http://ns.adobe.com/AdobeSVGViewerExtensions/3.0/"
	 x="0px" y="0px" width="20px" height="8px" viewBox="0 0 20 8" enable-background="new 0 0 20 8" xml:space="preserve">
<defs>
</defs>
<path fill-rule="evenodd" clip-rule="evenodd" fill="#6799D1" d="M16.281,8h-2.238c-1.574,0-2.915-1.061-3.457-2.55H9.415
	C8.873,6.939,7.532,8,5.958,8H3.72C1.669,8,0,6.205,0,4c0-2.206,1.669-4,3.72-4h2.237c1.557,0,2.888,1.036,3.442,2.498h1.202
	C11.155,1.036,12.486,0,14.043,0h2.238C18.332,0,20,1.794,20,4C20,6.205,18.332,8,16.281,8z M5.958,1.854H3.72
	C2.62,1.854,1.725,2.817,1.725,4c0,1.184,0.895,2.146,1.996,2.146h2.237c0.579,0,1.097-0.271,1.462-0.695H6.343
	c-0.756,0-1.372-0.662-1.372-1.477c0-0.813,0.616-1.476,1.372-1.476h1.035C7.016,2.102,6.514,1.854,5.958,1.854z M16.281,1.854
	h-2.238c-0.557,0-1.059,0.248-1.421,0.644h0.764c0.757,0,1.372,0.662,1.372,1.476c0,0.814-0.615,1.477-1.372,1.477h-0.805
	c0.365,0.425,0.883,0.695,1.462,0.695h2.238c1.1,0,1.995-0.962,1.995-2.146C18.276,2.817,17.381,1.854,16.281,1.854z"/>
</svg>
