<?xml version="1.0" encoding="utf-8"?>
<!-- Generator: Adobe Illustrator 15.1.0, SVG Export Plug-In  -->
<!DOCTYPE svg PUBLIC "-//W3C//DTD SVG 1.1//EN" "http://www.w3.org/Graphics/SVG/1.1/DTD/svg11.dtd" [
	<!ENTITY ns_flows "http://ns.adobe.com/Flows/1.0/">
]>
<svg version="1.1"
	 xmlns="http://www.w3.org/2000/svg" xmlns:xlink="http://www.w3.org/1999/xlink" xmlns:a="http://ns.adobe.com/AdobeSVGViewerExtensions/3.0/"
	 x="0px" y="0px" width="16px" height="16px" viewBox="0 0 16 16" enable-background="new 0 0 16 16" xml:space="preserve">
<defs>
</defs>
<path fill-rule="evenodd" clip-rule="evenodd" fill="#FFFFFF" d="M15.78,8.566c-0.019,0.02-0.046,0.017-0.065,0.034l-3.016,3.171
	c-0.299,0.313-0.782,0.313-1.081,0c-0.298-0.312-0.298-0.817,0-1.13l1.749-1.839L5.333,8.796c-0.422,0-0.764-0.358-0.764-0.8
	s0.342-0.799,0.764-0.799l8.07,0.006l-1.785-1.877c-0.298-0.312-0.298-0.818,0-1.131c0.299-0.312,0.782-0.312,1.081,0l2.982,3.137
	c0.031,0.025,0.069,0.039,0.099,0.069c0.153,0.161,0.225,0.373,0.22,0.583C16.005,8.194,15.934,8.406,15.78,8.566z M14.508,4.01
	c-0.423,0-0.764-0.358-0.764-0.8V3.043c-0.022-1.129-0.302-1.435-1.496-1.443L2.885,1.605c-1.122,0.034-1.34,0.377-1.34,1.592
	L1.527,2.463l0.006,10.71c0.057,0.964,0.383,1.22,1.539,1.22l-1.539-0.011V14.4l12.214-0.007l-0.002-1.041l-0.007,1.03l-1.541,0.011
	c1.239,0,1.523-0.299,1.546-1.444v-0.167c0-0.441,0.341-0.8,0.764-0.8c0.421,0,0.764,0.358,0.764,0.8l0.002,0.812h-0.002v0.8
	c0,0.884-0.684,1.599-1.527,1.599h-0.812v0.001L2.338,16v-0.008H1.527c-0.832,0-1.501-0.698-1.52-1.564L0,1.596
	c0.002-0.869,0.667-1.569,1.493-1.589L13.747,0c0.843,0.002,1.524,0.717,1.524,1.599v0.8h0.002L15.271,3.21
	C15.271,3.652,14.929,4.01,14.508,4.01z M1.527,1.606v0.003l0.475-0.003H1.527z M12.446,1.6l1.293,0.009l0.007,1.03l0.002-1.04
	L12.446,1.6z"/>
</svg>
