<?xml version="1.0" encoding="utf-8"?>
<!-- Generator: Adobe Illustrator 15.1.0, SVG Export Plug-In  -->
<!DOCTYPE svg PUBLIC "-//W3C//DTD SVG 1.1//EN" "http://www.w3.org/Graphics/SVG/1.1/DTD/svg11.dtd" [
	<!ENTITY ns_flows "http://ns.adobe.com/Flows/1.0/">
]>
<svg version="1.1"
	 xmlns="http://www.w3.org/2000/svg" xmlns:xlink="http://www.w3.org/1999/xlink" xmlns:a="http://ns.adobe.com/AdobeSVGViewerExtensions/3.0/"
	 x="0px" y="0px" width="16px" height="14px" viewBox="0 0 16 14" enable-background="new 0 0 16 14" xml:space="preserve">
<defs>
</defs>
<path fill-rule="evenodd" clip-rule="evenodd" fill="#312E37" d="M12.543,9.631c0.014,0.05,0.023,0.099,0.021,0.15L12.582,9.9
	h-0.037c-0.004,0.02-0.001,0.039-0.008,0.059l-0.015,0.052c-0.12,0.303-0.497,0.46-0.841,0.355
	c-0.175-0.054-0.307-0.168-0.379-0.305l-0.021,0.019l-0.015-0.141c-0.013-0.048-0.019-0.095-0.016-0.145l-0.175-1.651l2.653-2.448
	l-3.868-0.7l-1.936-2.94v0.046L6.032,5.016L2.243,5.739l2.571,2.393l-0.539,3.497l3.65-1.509l1.437,0.552l-0.012,0.021
	c0.321,0.125,0.489,0.442,0.371,0.738l-0.016,0.054c-0.124,0.312-0.513,0.476-0.867,0.365c-0.016-0.004-0.025-0.015-0.04-0.021
	v0.008l-0.876-0.361l-4.484,1.847c-0.248-0.055-0.466-0.18-0.611-0.366l0.618-4.335L0,5.395C0.019,5.174,0.131,4.976,0.306,4.82
	l4.849-0.817L7.65,0.03c0.181-0.041,0.366-0.041,0.545,0.003l2.494,3.97l4.833,0.814c0.18,0.159,0.291,0.365,0.306,0.592L12.4,8.623
	L12.543,9.631z M11.609,11.734l0.913,0.794l2.298-2.008c0.27-0.237,0.708-0.237,0.978,0s0.27,0.621,0,0.857l-2.711,2.369
	c-0.021,0.025-0.032,0.055-0.06,0.078c-0.139,0.122-0.321,0.179-0.503,0.175c-0.182,0.004-0.365-0.053-0.504-0.175
	c-0.026-0.023-0.038-0.052-0.059-0.077l-1.33-1.157c-0.27-0.236-0.27-0.62,0-0.856C10.902,11.497,11.34,11.497,11.609,11.734z"/>
</svg>
