<?xml version="1.0" encoding="utf-8"?>
<!-- Generator: Adobe Illustrator 15.1.0, SVG Export Plug-In  -->
<!DOCTYPE svg PUBLIC "-//W3C//DTD SVG 1.1//EN" "http://www.w3.org/Graphics/SVG/1.1/DTD/svg11.dtd" [
	<!ENTITY ns_flows "http://ns.adobe.com/Flows/1.0/">
]>
<svg version="1.1"
	 xmlns="http://www.w3.org/2000/svg" xmlns:xlink="http://www.w3.org/1999/xlink" xmlns:a="http://ns.adobe.com/AdobeSVGViewerExtensions/3.0/"
	 x="0px" y="0px" width="24px" height="24px" viewBox="0 0 24 24" enable-background="new 0 0 24 24" xml:space="preserve">
<defs>
</defs>
<circle cx="12" cy="12" r="12"/>
<polygon fill="#FFFFFF" points="16.363,7.796 16.363,6.164 15.548,6.164 15.548,7.796 13.917,7.796 13.917,8.612 15.548,8.612 
	15.548,10.242 16.363,10.242 16.363,8.612 17.995,8.612 17.995,7.796 "/>
<path fill="#FFFFFF" d="M13.633,6c0,0-2.612,0-3.538,0c-1.794,0-3.29,1.324-3.29,2.78c0,1.487,0.983,2.673,2.67,2.673
	c0.118,0,0.231-0.007,0.343-0.014c-0.11,0.209-0.188,0.443-0.188,0.689c0,0.413,0.228,0.649,0.508,0.922
	c-0.212,0-0.417,0.006-0.641,0.006c-2.056,0-3.494,1.414-3.494,2.771C6.004,17.164,7.738,18,9.793,18
	c2.342,0,3.785-1.328,3.785-2.666c0-1.07-0.232-1.609-1.375-2.466c-0.328-0.247-1.042-0.75-1.042-1.089
	c0-0.397,0.113-0.592,0.711-1.059c0.612-0.478,1.044-1.107,1.044-1.89c0-0.853-0.347-1.625-1.003-2h0.929L13.633,6z M12.433,15.104
	c0.03,0.122,0.046,0.251,0.046,0.381c0,1.081-0.696,1.925-2.693,1.925c-1.42,0-2.446-0.9-2.446-1.979
	c0-1.06,1.203-1.972,2.624-1.956c0.331,0.004,0.64,0.057,0.919,0.146C11.655,14.158,12.276,14.493,12.433,15.104z M10.16,10.913
	c-0.954-0.029-1.86-0.904-2.024-2.156C7.97,7.506,8.61,6.548,9.563,6.576c0.953,0.029,1.768,1.056,1.932,2.307
	C11.66,10.135,11.112,10.941,10.16,10.913z"/>
</svg>
