<?xml version="1.0" encoding="utf-8"?>
<!-- Generator: Adobe Illustrator 15.1.0, SVG Export Plug-In  -->
<!DOCTYPE svg PUBLIC "-//W3C//DTD SVG 1.1//EN" "http://www.w3.org/Graphics/SVG/1.1/DTD/svg11.dtd" [
	<!ENTITY ns_flows "http://ns.adobe.com/Flows/1.0/">
]>
<svg version="1.1"
	 xmlns="http://www.w3.org/2000/svg" xmlns:xlink="http://www.w3.org/1999/xlink" xmlns:a="http://ns.adobe.com/AdobeSVGViewerExtensions/3.0/"
	 x="0px" y="0px" width="16px" height="16px" viewBox="-0.628 -2.15 16 16" enable-background="new -0.628 -2.15 16 16"
	 xml:space="preserve">
<defs>
</defs>
<g>
	<g>
		<path fill-rule="evenodd" clip-rule="evenodd" fill="#FFFFFF" d="M14.744,3.89c0-0.359-0.301-0.65-0.671-0.65
			c-0.369,0-0.67,0.291-0.67,0.65l0.005,5.231c0,1.262-0.022,1.277-1.362,1.277l1.363-0.009v0.009L1.346,10.404V10.39l0.86,0.006
			c-0.679-0.013-0.828-0.106-0.861-0.685L1.341,2.117C1.364,1.451,1.497,1.326,2.2,1.305L12.334,1.3L7.357,5.631L3.818,2.785
			c-0.262-0.253-0.686-0.253-0.947,0c-0.262,0.254-0.262,0.665,0,0.919L6.79,6.855c0.026,0.04,0.044,0.083,0.081,0.118
			c0.145,0.14,0.337,0.195,0.526,0.181c0.172,0,0.344-0.063,0.475-0.19c0.027-0.026,0.04-0.06,0.061-0.089l6.62-5.761
			c0.001-0.001,0.002-0.003,0.003-0.005c0.048-0.046,0.082-0.104,0.114-0.163C14.508,0.404,14.015,0,13.405,0L1.308,0.006
			C0.584,0.022,0.001,0.591,0,1.297l0.006,9.132c0.018,0.702,0.604,1.27,1.333,1.27h0.712v0.005L12.691,11.7v-0.001h0.712
			c0.74,0,1.34-0.583,1.34-1.301v-0.65h0.006L14.744,3.89z M1.731,1.305L1.341,1.308V1.305H1.731z"/>
	</g>
</g>
</svg>
