<?xml version="1.0" encoding="utf-8"?>
<!-- Generator: Adobe Illustrator 15.1.0, SVG Export Plug-In  -->
<!DOCTYPE svg PUBLIC "-//W3C//DTD SVG 1.1//EN" "http://www.w3.org/Graphics/SVG/1.1/DTD/svg11.dtd" [
	<!ENTITY ns_flows "http://ns.adobe.com/Flows/1.0/">
]>
<svg version="1.1"
	 xmlns="http://www.w3.org/2000/svg" xmlns:xlink="http://www.w3.org/1999/xlink" xmlns:a="http://ns.adobe.com/AdobeSVGViewerExtensions/3.0/"
	 x="0px" y="0px" width="16px" height="20px" viewBox="0 0 16 20" enable-background="new 0 0 16 20" xml:space="preserve">
<defs>
</defs>
<path fill-rule="evenodd" clip-rule="evenodd" fill="#2E2B34" d="M0,6.443l1.113-0.968l0,0l0,0l0.009-0.006l0.033,0.006h5.41
	l-1.01-3.522L5.552,1.948l0.569-1.212L6.14,0.734l0.002-0.008L8.231,0l0.001,0.002L8.233,0L9.5,0.488l0.003,0.02l3.169,5.647h0.555
	h1.387H16v1.361v6.123V15h-1.387h-1.387H11.84H2.891l-0.009-0.014l0,0l-1.045-0.674l0.003-0.025L0.055,6.525L0,6.443z
	 M13.227,13.639h1.387V7.516h-1.387V13.639z M3.112,13.625l0.019,0.014h8.709V7.604L8.371,1.453L8.328,1.438L7.053,1.863
	L7.026,1.928l1.39,4.903L8.37,6.83l0.003,0.006H1.522L3.112,13.625z"/>
</svg>
