<?xml version="1.0" encoding="utf-8"?>
<!-- Generator: Adobe Illustrator 15.1.0, SVG Export Plug-In  -->
<!DOCTYPE svg PUBLIC "-//W3C//DTD SVG 1.1//EN" "http://www.w3.org/Graphics/SVG/1.1/DTD/svg11.dtd" [
	<!ENTITY ns_flows "http://ns.adobe.com/Flows/1.0/">
]>
<svg version="1.1"
	 xmlns="http://www.w3.org/2000/svg" xmlns:xlink="http://www.w3.org/1999/xlink" xmlns:a="http://ns.adobe.com/AdobeSVGViewerExtensions/3.0/"
	 x="0px" y="0px" width="16px" height="16px" viewBox="0 0 16 16" enable-background="new 0 0 16 16" xml:space="preserve">
<defs>
</defs>
<path fill-rule="evenodd" clip-rule="evenodd" fill="#FFFFFF" d="M6.727,4.574c0.283-0.283,0.744-0.283,1.027,0l2.852,2.887
	c0.015,0.013,0.033,0.018,0.047,0.031c0.145,0.145,0.214,0.334,0.211,0.522c0.003,0.189-0.066,0.378-0.211,0.522
	c-0.014,0.014-0.032,0.019-0.047,0.031l-2.827,2.864c-0.284,0.283-0.745,0.283-1.028,0c-0.284-0.285-0.284-0.745,0-1.029
	l2.358-2.388L6.727,5.603C6.441,5.319,6.441,4.859,6.727,4.574z M8,16c-1.703,0-3.264-0.555-4.561-1.463
	c-0.316-0.078-0.556-0.352-0.556-0.692l-0.006-0.067c0-0.401,0.325-0.727,0.727-0.727c0.202,0,0.385,0.082,0.516,0.215l0.005-0.004
	c1.086,0.798,2.415,1.285,3.865,1.285c3.621,0,6.557-2.936,6.557-6.557c0-3.621-2.936-6.557-6.557-6.557S1.433,4.369,1.433,7.99
	c0,0.999,0.241,1.936,0.64,2.784l-0.128,0.128c0.266,0.108,0.454,0.367,0.454,0.672l0.007,0.067c0,0.402-0.326,0.728-0.727,0.728
	c-0.327,0-0.593-0.22-0.685-0.517l-0.004,0.004C0.36,10.712,0,9.398,0,8c0-4.419,3.582-8,8-8s8,3.582,8,8C16,12.419,12.418,16,8,16z
	"/>
</svg>
