<?xml version="1.0" encoding="utf-8"?>
<!-- Generator: Adobe Illustrator 15.1.0, SVG Export Plug-In  -->
<!DOCTYPE svg PUBLIC "-//W3C//DTD SVG 1.1//EN" "http://www.w3.org/Graphics/SVG/1.1/DTD/svg11.dtd" [
	<!ENTITY ns_flows "http://ns.adobe.com/Flows/1.0/">
]>
<svg version="1.1"
	 xmlns="http://www.w3.org/2000/svg" xmlns:xlink="http://www.w3.org/1999/xlink" xmlns:a="http://ns.adobe.com/AdobeSVGViewerExtensions/3.0/"
	 x="0px" y="0px" width="16px" height="16px" viewBox="-0.65 -0.935 16 16" enable-background="new -0.65 -0.935 16 16"
	 xml:space="preserve">
<defs>
</defs>
<g>
	<g>
		<path fill-rule="evenodd" clip-rule="evenodd" fill="#FFFFFF" d="M13.249,7.262c-0.386,0-0.698,0.326-0.698,0.728l0.004,3.691
			c-0.007,1.126-0.246,1.41-1.411,1.411L1.4,13.098v-0.016l1.405,0.01c-1.055,0-1.353-0.233-1.406-1.107L1.395,2.243l0.016,0.666
			c0-1.107,0.199-1.419,1.229-1.449l9.224-0.005c0.386,0,0.697-0.326,0.697-0.727S12.249,0,11.863,0L1.332,0.006
			C0.594,0.041,0.004,0.669,0,1.446l0.006,11.713c0.035,0.771,0.64,1.386,1.388,1.386h0.741v0.006l9.676-0.005v-0.001h0.74
			c0.771,0,1.396-0.65,1.396-1.454v-0.728h0.005L13.946,7.99C13.946,7.588,13.634,7.262,13.249,7.262z M1.395,1.461h0.451
			L1.395,1.464V1.461z M11.158,13.092l1.389-0.01l0.008-1.247l0.001,1.256L11.158,13.092z M15.061,1.707
			c-0.379-0.395-0.993-0.395-1.372,0L5.843,9.926c-0.379,0.395-0.379,1.035,0,1.431s0.994,0.396,1.372,0l7.846-8.218
			C15.44,2.743,15.44,2.103,15.061,1.707z"/>
	</g>
</g>
</svg>
