<?xml version="1.0" encoding="utf-8"?>
<!-- Generator: Adobe Illustrator 15.1.0, SVG Export Plug-In  -->
<!DOCTYPE svg PUBLIC "-//W3C//DTD SVG 1.1//EN" "http://www.w3.org/Graphics/SVG/1.1/DTD/svg11.dtd" [
	<!ENTITY ns_flows "http://ns.adobe.com/Flows/1.0/">
]>
<svg version="1.1"
	 xmlns="http://www.w3.org/2000/svg" xmlns:xlink="http://www.w3.org/1999/xlink" xmlns:a="http://ns.adobe.com/AdobeSVGViewerExtensions/3.0/"
	 x="0px" y="0px" width="24px" height="24px" viewBox="0 0 24 24" enable-background="new 0 0 24 24" xml:space="preserve">
<defs>
</defs>
<circle cx="12" cy="12" r="12"/>
<path fill="#FFFFFF" d="M12,12.084c1.896,0,3.434-1.537,3.434-3.434S13.896,5.216,12,5.216S8.566,6.753,8.566,8.65
	S10.104,12.084,12,12.084z M12,6.961c0.932,0,1.69,0.756,1.69,1.689s-0.759,1.689-1.69,1.689s-1.69-0.756-1.69-1.689
	S11.068,6.961,12,6.961z M15.958,12.503c-0.193-0.39-0.729-0.714-1.444-0.151C13.55,13.112,12,13.112,12,13.112s-1.55,0-2.514-0.761
	c-0.715-0.563-1.251-0.239-1.444,0.151c-0.337,0.679,0.044,1.008,0.905,1.56c0.735,0.473,1.746,0.648,2.399,0.717l-0.545,0.545
	c-0.768,0.768-1.509,1.508-2.021,2.023c-0.308,0.307-0.308,0.805,0,1.111l0.091,0.096c0.308,0.307,0.806,0.307,1.116,0l2.021-2.025
	c0.768,0.77,1.509,1.512,2.024,2.025c0.308,0.307,0.806,0.307,1.113,0l0.091-0.096c0.311-0.307,0.311-0.805,0-1.111l-2.021-2.023
	l-0.548-0.548c0.653-0.067,1.655-0.245,2.385-0.714C15.914,13.511,16.295,13.182,15.958,12.503z"/>
</svg>
