<?xml version="1.0" encoding="utf-8"?>
<!-- Generator: Adobe Illustrator 15.1.0, SVG Export Plug-In  -->
<!DOCTYPE svg PUBLIC "-//W3C//DTD SVG 1.1//EN" "http://www.w3.org/Graphics/SVG/1.1/DTD/svg11.dtd" [
	<!ENTITY ns_flows "http://ns.adobe.com/Flows/1.0/">
]>
<svg version="1.1"
	 xmlns="http://www.w3.org/2000/svg" xmlns:xlink="http://www.w3.org/1999/xlink" xmlns:a="http://ns.adobe.com/AdobeSVGViewerExtensions/3.0/"
	 x="0px" y="0px" width="19px" height="16px" viewBox="0 0 19 16" enable-background="new 0 0 19 16" xml:space="preserve">
<defs>
</defs>
<path fill="#FFFFFF" d="M9.965,8.717c1.211-0.876,2.008-2.292,2.008-3.897c0-2.658-2.162-4.82-4.82-4.82
	C4.496,0,2.333,2.162,2.333,4.82c0,1.605,0.797,3.021,2.008,3.897C1.792,9.811,0,12.345,0,15.292c0,0.414,0.336,0.75,0.75,0.75
	s0.75-0.336,0.75-0.75c0-3.117,2.536-5.652,5.653-5.652s5.653,2.536,5.653,5.652c0,0.414,0.336,0.75,0.75,0.75s0.75-0.336,0.75-0.75
	C14.306,12.345,12.515,9.812,9.965,8.717z M3.833,4.82c0-1.831,1.489-3.32,3.319-3.32c1.831,0,3.32,1.489,3.32,3.32
	c0,1.83-1.489,3.319-3.32,3.319C5.323,8.139,3.833,6.65,3.833,4.82z"/>
<path fill="#FFFFFF" d="M15.1,8.717c1.211-0.876,2.008-2.292,2.008-3.897c0-2.658-2.162-4.82-4.819-4.82
	c-0.414,0-0.75,0.336-0.75,0.75s0.336,0.75,0.75,0.75c1.83,0,3.319,1.489,3.319,3.32c0,1.83-1.489,3.319-3.319,3.319
	c-0.414,0-0.75,0.336-0.75,0.75s0.336,0.75,0.75,0.75c3.117,0,5.652,2.536,5.652,5.652c0,0.414,0.336,0.75,0.75,0.75
	s0.75-0.336,0.75-0.75C19.44,12.345,17.649,9.812,15.1,8.717z"/>
</svg>
