<?xml version="1.0" encoding="utf-8"?>
<!-- Generator: Adobe Illustrator 15.1.0, SVG Export Plug-In  -->
<!DOCTYPE svg PUBLIC "-//W3C//DTD SVG 1.1//EN" "http://www.w3.org/Graphics/SVG/1.1/DTD/svg11.dtd" [
	<!ENTITY ns_flows "http://ns.adobe.com/Flows/1.0/">
]>
<svg version="1.1"
	 xmlns="http://www.w3.org/2000/svg" xmlns:xlink="http://www.w3.org/1999/xlink" xmlns:a="http://ns.adobe.com/AdobeSVGViewerExtensions/3.0/"
	 x="0px" y="0px" width="15px" height="16px" viewBox="0 0 15 16" enable-background="new 0 0 15 16" xml:space="preserve">
<defs>
</defs>
<path fill-rule="evenodd" clip-rule="evenodd" fill="#2F2C35" d="M15,12.539l-0.492,1.168l-0.097-0.053l-1.868-0.021l-0.95,2.248
	L11.602,16l-1.256-0.033l-2.313-4.023c-0.177,0.016-0.347,0.053-0.527,0.053c-0.185,0-0.357-0.039-0.538-0.055l-2.313,4.025
	L3.398,16l0.009-0.119l-0.95-2.248l-1.868,0.021l-0.097,0.053L0,12.539L2.385,9.25c-0.63-0.935-1.011-2.045-1.011-3.252
	C1.374,2.685,4.119,0,7.506,0c3.387,0,6.133,2.685,6.133,5.998c0,1.211-0.383,2.324-1.018,3.26L15,12.539z M10.847,14.072
	l0.735-1.652l0.002-0.129l1.519-0.012l-1.39-1.959c-0.645,0.594-1.416,1.061-2.277,1.342L10.847,14.072z M1.897,12.279l1.518,0.012
	l0.002,0.129l0.736,1.652l1.413-2.412c-0.86-0.283-1.63-0.752-2.275-1.346L1.897,12.279z M7.52,1.331
	c-2.636,0-4.772,2.089-4.772,4.667s2.137,4.667,4.772,4.667s4.772-2.089,4.772-4.667S10.155,1.331,7.52,1.331z"/>
</svg>
