<?xml version="1.0" encoding="utf-8"?>
<!-- Generator: Adobe Illustrator 15.1.0, SVG Export Plug-In  -->
<!DOCTYPE svg PUBLIC "-//W3C//DTD SVG 1.1//EN" "http://www.w3.org/Graphics/SVG/1.1/DTD/svg11.dtd" [
	<!ENTITY ns_flows "http://ns.adobe.com/Flows/1.0/">
]>
<svg version="1.1"
	 xmlns="http://www.w3.org/2000/svg" xmlns:xlink="http://www.w3.org/1999/xlink" xmlns:a="http://ns.adobe.com/AdobeSVGViewerExtensions/3.0/"
	 x="0px" y="0px" width="18px" height="19px" viewBox="0 0 18 19" enable-background="new 0 0 18 19" xml:space="preserve">
<defs>
</defs>
<path fill-rule="evenodd" clip-rule="evenodd" fill="#EC2127" d="M6.059,15.552L6.05,5.173c0-0.477,0.384-0.862,0.856-0.862
	c0.473,0,0.856,0.385,0.856,0.862L7.77,15.552c0,0.477-0.383,0.863-0.856,0.863C6.441,16.415,6.059,16.028,6.059,15.552z
	 M10.336,15.552L10.328,5.173c0-0.477,0.384-0.862,0.855-0.862c0.473,0,0.855,0.385,0.855,0.862l0.008,10.378
	c0,0.477-0.384,0.863-0.856,0.863C10.719,16.415,10.336,16.028,10.336,15.552z M17.145,3.475L9.498,3.479
	c-0.005,0-0.011,0.003-0.018,0.003c-0.005,0-0.012-0.003-0.018-0.003H8.641c-0.006,0-0.011,0.003-0.017,0.003
	s-0.01-0.003-0.016-0.003l-5.12,0.003l0.007,13.794h0.012l-0.011-1.752c0,1.464,0.338,1.725,1.711,1.725l-1.122,0.026l9.704-0.006
	l-0.881-0.021c1.349,0,1.696-0.259,1.708-1.658L14.61,5.178c0-0.476,0.383-0.862,0.856-0.862c0.472,0,0.855,0.386,0.855,0.862
	l0.007,12.095c-0.002,0.951-0.767,1.721-1.711,1.721h-0.854v0.001L4.353,19v-0.007H3.497c-0.944,0-1.71-0.771-1.71-1.725v-0.916
	H1.785L1.778,3.482L0.856,3.483C0.383,3.483,0,3.098,0,2.621s0.383-0.862,0.856-0.862l1.636-0.001
	C2.541,1.75,2.583,1.729,2.633,1.729c0.05,0,0.093,0.021,0.14,0.029l4.992-0.002L7.762,0.862C7.762,0.387,8.145,0,8.617,0
	c0.16,0,0.301,0.056,0.428,0.132C9.172,0.056,9.313,0,9.473,0c0.473,0,0.855,0.387,0.855,0.862l0.004,0.892l6.813-0.003
	C17.617,1.751,18,2.136,18,2.613C18,3.089,17.617,3.475,17.145,3.475z M14.618,17.27l-0.001-1.413l-0.01,1.413H14.618z"/>
</svg>
