<?xml version="1.0" encoding="utf-8"?>
<!-- Generator: Adobe Illustrator 15.1.0, SVG Export Plug-In  -->
<!DOCTYPE svg PUBLIC "-//W3C//DTD SVG 1.1//EN" "http://www.w3.org/Graphics/SVG/1.1/DTD/svg11.dtd" [
	<!ENTITY ns_flows "http://ns.adobe.com/Flows/1.0/">
]>
<svg version="1.1"
	 xmlns="http://www.w3.org/2000/svg" xmlns:xlink="http://www.w3.org/1999/xlink" xmlns:a="http://ns.adobe.com/AdobeSVGViewerExtensions/3.0/"
	 x="0px" y="0px" width="16px" height="16px" viewBox="0 0 16 16" enable-background="new 0 0 16 16" xml:space="preserve">
<defs>
</defs>
<path fill-rule="evenodd" clip-rule="evenodd" fill="#FFFFFF" d="M13.438,16c-0.752,0-1.424-0.332-1.891-0.85
	c-0.004-0.002-0.008-0.004-0.012-0.006l-2.943-2.922c-0.704,0.271-1.46,0.436-2.259,0.436C2.835,12.658,0,9.824,0,6.328
	c0-0.909,0.214-1.76,0.566-2.538C0.581,3.642,0.636,3.497,0.75,3.382c0.008-0.008,0.019-0.01,0.027-0.018
	c0.024-0.045,0.042-0.093,0.067-0.137l0.057,0.054C1.156,3.14,1.477,3.167,1.692,3.382l2.995,3.013l1.717-1.73L3.416,1.66
	C3.21,1.454,3.174,1.151,3.292,0.903L3.232,0.842c0.048-0.028,0.101-0.048,0.15-0.074c0.014-0.016,0.019-0.036,0.034-0.051
	c0.129-0.128,0.296-0.191,0.463-0.193C4.633,0.196,5.457,0,6.333,0c3.497,0,6.333,2.833,6.333,6.328
	c0,0.073-0.014,0.143-0.021,0.213c0.002,0.021,0.014,0.041,0.014,0.063l0.006,0.063c0,0.367-0.299,0.666-0.666,0.666
	c-0.295,0-0.535-0.193-0.627-0.457h-0.088c0.021-0.188,0.057-0.37,0.057-0.563c0-2.773-2.248-5.021-5.023-5.021
	c-0.423,0-0.829,0.066-1.219,0.169l2.586,2.6C7.71,4.088,7.724,4.123,7.747,4.155C7.767,4.172,7.792,4.18,7.811,4.198
	c0.26,0.26,0.26,0.682,0,0.942L5.154,7.816c-0.261,0.26-0.682,0.26-0.942,0C4.181,7.787,4.166,7.748,4.143,7.713
	C4.12,7.695,4.093,7.688,4.073,7.668L1.475,5.053c-0.11,0.403-0.182,0.821-0.182,1.26c0,2.773,2.25,5.021,5.024,5.021
	c0.939,0,1.807-0.275,2.559-0.723l0.976,0.977C9.85,11.59,9.848,11.59,9.846,11.592l1.143,1.133l0,0l0.146,0.145l1.344,1.334
	c0.008,0.008,0.01,0.018,0.016,0.025l0.006,0.006c0.045,0.053,0.092,0.1,0.145,0.145l0.07,0.068l0.012-0.014
	c0.205,0.146,0.441,0.25,0.713,0.25c0.688,0,1.246-0.557,1.246-1.242c0-0.281-0.111-0.527-0.268-0.734l0.066-0.068
	c-0.104-0.031-0.203-0.078-0.283-0.158l-3.24-3.217c-0.26-0.262-0.26-0.684,0-0.943s0.684-0.26,0.943,0l3.24,3.217
	c0.076,0.078,0.123,0.172,0.154,0.268l0.053-0.053C15.75,12.203,16,12.789,16,13.439C16,14.854,14.854,16,13.438,16z"/>
</svg>
