<?xml version="1.0" encoding="utf-8"?>
<!-- Generator: Adobe Illustrator 15.1.0, SVG Export Plug-In  -->
<!DOCTYPE svg PUBLIC "-//W3C//DTD SVG 1.1//EN" "http://www.w3.org/Graphics/SVG/1.1/DTD/svg11.dtd" [
	<!ENTITY ns_flows "http://ns.adobe.com/Flows/1.0/">
]>
<svg version="1.1"
	 xmlns="http://www.w3.org/2000/svg" xmlns:xlink="http://www.w3.org/1999/xlink" xmlns:a="http://ns.adobe.com/AdobeSVGViewerExtensions/3.0/"
	 x="0px" y="0px" width="16px" height="16px" viewBox="-2.6 0 16 16" enable-background="new -2.6 0 16 16" xml:space="preserve">
<defs>
</defs>
<g>
	<g>
		<path fill-rule="evenodd" clip-rule="evenodd" fill="#FFFFFF" d="M10.795,4.386c0-0.441-0.357-0.8-0.799-0.8s-0.8,0.358-0.8,0.8
			L9.2,12.822c-0.004,1.258-0.275,1.572-1.623,1.572l1.613-0.011l0.011-1.474l0.001,1.484L1.606,14.4v-0.017l1.611,0.011
			c-1.21,0-1.552-0.256-1.612-1.218L1.6,2.464l0.018,0.734c0-1.215,0.229-1.559,1.406-1.592l6.583-0.006
			c0.441,0,0.799-0.358,0.799-0.799c0-0.442-0.357-0.8-0.799-0.8L1.528,0.007C0.681,0.044,0.004,0.736,0,1.592l0.007,12.873
			c0.038,0.85,0.733,1.528,1.592,1.528h0.85V16l5.897-0.006v-0.001h0.85c0.884,0,1.6-0.716,1.6-1.599v-0.801h0.006L10.795,4.386z
			 M1.599,1.606h0.505L1.599,1.609V1.606z M4.397,12.595c0,0.552,0.448,0.999,1,0.999c0.552,0,0.999-0.447,0.999-0.999
			s-0.447-0.999-0.999-0.999C4.845,11.596,4.397,12.043,4.397,12.595z M7.996,2.799c0-0.221-0.179-0.4-0.4-0.4H3.998
			c-0.221,0-0.4,0.179-0.4,0.4c0,0.221,0.179,0.4,0.4,0.4h3.598C7.817,3.199,7.996,3.02,7.996,2.799z"/>
	</g>
</g>
</svg>
