<?xml version="1.0" encoding="utf-8"?>
<!-- Generator: Adobe Illustrator 15.1.0, SVG Export Plug-In  -->
<!DOCTYPE svg PUBLIC "-//W3C//DTD SVG 1.1//EN" "http://www.w3.org/Graphics/SVG/1.1/DTD/svg11.dtd" [
	<!ENTITY ns_flows "http://ns.adobe.com/Flows/1.0/">
]>
<svg version="1.1"
	 xmlns="http://www.w3.org/2000/svg" xmlns:xlink="http://www.w3.org/1999/xlink" xmlns:a="http://ns.adobe.com/AdobeSVGViewerExtensions/3.0/"
	 x="0px" y="0px" width="24px" height="24px" viewBox="0 0 24 24" enable-background="new 0 0 24 24" xml:space="preserve">
<defs>
</defs>
<circle fill="#2BA9E0" cx="12" cy="12" r="12"/>
<path fill="#FFFFFF" d="M16.771,9.554c0.006,0.106,0.008,0.211,0.008,0.318c0,3.253-2.477,7.005-7.005,7.005
	c-1.391,0-2.684-0.408-3.774-1.105c0.193,0.021,0.389,0.033,0.587,0.033c1.154,0,2.215-0.393,3.057-1.053
	c-1.077-0.021-1.986-0.733-2.299-1.711c0.15,0.028,0.304,0.045,0.463,0.045c0.225,0,0.443-0.031,0.648-0.087
	c-1.125-0.228-1.975-1.222-1.975-2.414c0-0.01,0-0.021,0-0.031c0.333,0.185,0.712,0.294,1.116,0.308
	c-0.661-0.441-1.095-1.195-1.095-2.049c0-0.451,0.122-0.875,0.333-1.238c1.214,1.49,3.029,2.47,5.075,2.572
	c-0.042-0.18-0.064-0.368-0.064-0.561c0-1.359,1.103-2.461,2.462-2.461c0.707,0,1.348,0.299,1.797,0.776
	c0.561-0.11,1.088-0.315,1.563-0.598c-0.185,0.576-0.574,1.058-1.082,1.362C17.084,8.607,17.559,8.474,18,8.279
	C17.67,8.773,17.253,9.207,16.771,9.554z"/>
</svg>
