<?xml version="1.0" encoding="utf-8"?>
<!-- Generator: Adobe Illustrator 15.1.0, SVG Export Plug-In  -->
<!DOCTYPE svg PUBLIC "-//W3C//DTD SVG 1.1//EN" "http://www.w3.org/Graphics/SVG/1.1/DTD/svg11.dtd" [
	<!ENTITY ns_flows "http://ns.adobe.com/Flows/1.0/">
]>
<svg version="1.1"
	 xmlns="http://www.w3.org/2000/svg" xmlns:xlink="http://www.w3.org/1999/xlink" xmlns:a="http://ns.adobe.com/AdobeSVGViewerExtensions/3.0/"
	 x="0px" y="0px" width="24px" height="24px" viewBox="0 0 24 24" enable-background="new 0 0 24 24" xml:space="preserve">
<defs>
</defs>
<path d="M12,0C5.373,0,0,5.373,0,12c0,6.631,5.373,12,12,12c6.628,0,12-5.369,12-12C24,5.373,18.628,0,12,0z"/>
<path fill-rule="evenodd" clip-rule="evenodd" fill="#FFFFFF" d="M11.828,16.629h0.961c0,0,0.29-0.031,0.439-0.193
	c0.135-0.148,0.131-0.43,0.131-0.43s-0.019-1.313,0.581-1.507c0.589-0.19,1.349,1.269,2.151,1.831
	c0.607,0.422,1.068,0.332,1.068,0.332l2.149-0.033c0,0,1.124-0.07,0.591-0.969c-0.043-0.074-0.311-0.666-1.598-1.879
	c-1.348-1.274-1.166-1.066,0.457-3.267c0.988-1.342,1.383-2.159,1.259-2.511c-0.117-0.334-0.845-0.246-0.845-0.246l-2.418,0.018
	c0,0-0.18-0.026-0.313,0.056c-0.13,0.079-0.214,0.264-0.214,0.264s-0.383,1.037-0.894,1.919c-1.077,1.86-1.508,1.96-1.684,1.843
	c-0.41-0.27-0.308-1.081-0.308-1.658c0-1.805,0.269-2.555-0.523-2.751c-0.264-0.064-0.457-0.105-1.13-0.114
	c-0.862-0.009-1.593,0.003-2.007,0.208C9.409,7.679,9.197,7.986,9.327,8.004c0.161,0.021,0.522,0.1,0.713,0.363
	c0.248,0.343,0.239,1.113,0.239,1.113s0.143,2.124-0.332,2.388C9.621,12.05,9.174,11.681,8.213,9.99
	C7.721,9.126,7.35,8.171,7.35,8.171S7.278,7.992,7.15,7.896C6.995,7.781,6.778,7.743,6.778,7.743L4.479,7.758
	c0,0-0.344,0.012-0.471,0.164C3.895,8.057,4,8.338,4,8.338s1.799,4.283,3.837,6.442C9.706,16.762,11.828,16.629,11.828,16.629z"/>
</svg>
