<!DOCTYPE svg PUBLIC "-//W3C//DTD SVG 1.1//EN" "http://www.w3.org/Graphics/SVG/1.1/DTD/svg11.dtd" [
	<!ENTITY ns_flows "http://ns.adobe.com/Flows/1.0/">
]><svg xmlns="http://www.w3.org/2000/svg" width="115" height="29" viewBox="0 -6.602 115 29" enable-background="new 0 -6.602 115 29"><path fill="#fff" d="M.307 15.577h3.308v-10.406h-3.308v10.406zm1.665-15.444c-1.118 0-1.972.857-1.972 1.891 0 1.078.854 1.914 1.972 1.914 1.118 0 1.972-.88 1.972-1.914-.001-1.078-.855-1.891-1.972-1.891zm11.677 1.54c-.898-.418-2.016-.595-3.309-.595h-4.03v14.499h3.352v-4.752h.373c1.271 0 2.3-.176 3.133-.484 2.278-.857 3.001-2.729 3.001-4.4 0-2.069-.898-3.52-2.52-4.268zm-1.993 6.204c-.373.176-.854.241-1.424.241h-.57v-4.334h.504c.657 0 1.161.088 1.534.309.679.396.985 1.1.985 1.848 0 .923-.328 1.606-1.029 1.936zm15.248.989c0-2.529-1.314-3.96-4.513-3.96-1.643 0-3.045.396-4.272 1.013l1.03 2.09c.745-.396 1.753-.639 2.629-.639 1.117 0 1.818.396 1.818 1.365v.109l-1.644.066c-1.051.043-1.994.242-2.738.638-1.074.572-1.731 1.431-1.731 2.838 0 2.003 1.49 3.41 3.527 3.41 1.293 0 2.191-.483 2.892-1.101l.46.881h2.717c-.176-.572-.176-1.408-.176-2.047v-4.663zm-3.308 4.005c-.241.153-.789.374-1.512.374-.789 0-1.293-.352-1.293-1.078 0-.439.154-.704.46-.902.285-.176.701-.264 1.227-.285l1.117-.045v1.936zm12.159-7.965c-1.271 0-2.432.506-3.483 1.32l-.329-1.056h-2.826v10.406h3.308v-7.04c.613-.483 1.424-.77 2.104-.77 1.227 0 1.402.924 1.402 2.002v5.809h3.309v-6.799c-.001-3.212-1.82-3.872-3.485-3.872zm12.291.067c-.307-.044-.92-.066-1.161-.066-3.527 0-5.916 2.311-5.916 5.544 0 3.389 2.607 5.347 6.244 5.347 1.227 0 2.936-.22 4.141-.813v-14.985h-3.309v4.973zm0 8.008c-.285.088-.723.109-.964.109-1.512 0-2.739-.924-2.739-2.684s1.051-2.795 2.717-2.795c.417 0 .679.022.986.066v5.304zm14.593-4.115c0-2.529-1.314-3.96-4.514-3.96-1.644 0-3.046.396-4.273 1.013l1.03 2.09c.745-.396 1.753-.639 2.629-.639 1.118 0 1.819.396 1.819 1.365v.109l-1.643.066c-1.052.043-1.994.242-2.739.638-1.074.572-1.731 1.431-1.731 2.838 0 2.003 1.49 3.41 3.527 3.41 1.293 0 2.191-.483 2.893-1.101l.461.881h2.715c-.174-.572-.174-1.408-.174-2.047v-4.663zm-3.309 4.005c-.242.153-.789.374-1.513.374-.788 0-1.292-.352-1.292-1.078 0-.439.153-.704.46-.902.285-.176.702-.264 1.228-.285l1.117-.045v1.936zm7.645-.683c-.963 0-1.752.771-1.752 1.805 0 1.033.789 1.804 1.752 1.804.965 0 1.754-.771 1.754-1.804 0-1.034-.79-1.805-1.754-1.805zm12.269.815c-2.717 0-4.426-1.87-4.426-4.576 0-2.486 1.357-4.708 4.471-4.708 1.357 0 2.65.33 3.855.968v-3.08c-1.008-.418-2.322-.682-3.943-.682-4.887 0-7.953 3.388-7.953 7.546 0 4.246 2.584 7.326 7.58 7.326 1.535 0 3.199-.264 4.973-1.231l-.92-2.641c-1.074.638-2.125 1.078-3.637 1.078zm10.473-.109c-.459 0-.744-.177-.744-.814v-12.08h-3.309v12.915c0 1.893 1.051 2.838 3.066 2.838.658 0 1.535-.109 2.279-.418l-.637-2.553c-.239.089-.546.112-.655.112zm12.554-7.723h-3.309v7.26c-.416.374-.965.572-1.578.572-.744 0-1.205-.309-1.467-.792-.154-.286-.221-.638-.221-1.101v-5.939h-3.307v6.139c0 1.077.152 1.803.393 2.375.746 1.717 2.346 2.112 3.354 2.112 1.357 0 2.365-.571 3.068-1.21l.459.99h2.783c-.176-.572-.176-1.408-.176-1.914v-8.492zm7.514-.265c-.678 0-1.248.088-1.773.198v-5.104h-3.309v15.005c1.096.572 2.387.792 3.746.792 3.703 0 6.551-2.134 6.551-5.786 0-3.256-2.322-5.105-5.215-5.105zm-.789 8.185c-.307 0-.656-.021-.984-.109v-5.194c.307-.109.656-.176 1.203-.176 1.426 0 2.41 1.078 2.41 2.619 0 1.65-.984 2.86-2.629 2.86z"/></svg>