<!DOCTYPE svg PUBLIC "-//W3C//DTD SVG 1.1//EN" "http://www.w3.org/Graphics/SVG/1.1/DTD/svg11.dtd" [
	<!ENTITY ns_flows "http://ns.adobe.com/Flows/1.0/">
]><svg xmlns="http://www.w3.org/2000/svg" width="16" height="16" viewBox="-0.424 0 16 16" enable-background="new -0.424 0 16 16"><path fill-rule="evenodd" clip-rule="evenodd" fill="#302D36" d="M7.788 0c-4.302 0-7.788 3.582-7.788 8 0 1.398.351 2.712.965 3.855l.003-.004c.089.297.348.516.666.516.392 0 .708-.325.708-.727l-.006-.068c0-.305-.183-.563-.442-.672l.116-.118c-.39-.848-.615-1.793-.615-2.793 0-3.621 2.857-6.557 6.382-6.557s6.382 2.936 6.382 6.557c0 3.622-2.857 6.558-6.382 6.558-1.407 0-2.703-.475-3.757-1.268-.129-.14-.309-.229-.512-.229-.391 0-.708.325-.708.727l.006.068c0 .326.213.592.501.684 1.27.92 2.81 1.471 4.481 1.471 4.301 0 7.788-3.581 7.788-8 0-4.418-3.487-8-7.788-8zm.008 2.916c-.391 0-.708.325-.708.727l-.007 4.303-.011.055c0 .104.023.203.062.292.102.273.355.468.657.468l.159-.033 4.105.006c.392 0 .708-.325.708-.727 0-.401-.316-.727-.708-.727l-3.554-.005.005-3.633c-.001-.401-.317-.726-.708-.726z"/></svg>