<!DOCTYPE svg PUBLIC "-//W3C//DTD SVG 1.1//EN" "http://www.w3.org/Graphics/SVG/1.1/DTD/svg11.dtd" [
	<!ENTITY ns_flows "http://ns.adobe.com/Flows/1.0/">
]><svg xmlns="http://www.w3.org/2000/svg" width="16" height="16" viewBox="0 0 16 16"><path fill-rule="evenodd" clip-rule="evenodd" fill="#fff" d="M7.292 6.195c.134-.133.31-.197.485-.195.176-.002.352.063.486.196l.029.043 2.662 2.617c.264.262.264.688 0 .952-.265.262-.692.262-.957 0l-2.22-2.182-2.242 2.202c-.264.264-.692.264-.957 0-.264-.262-.264-.688 0-.951l2.685-2.639.029-.043zm.708 9.805c-1.703 0-3.264-.557-4.561-1.463-.316-.078-.556-.352-.556-.693l-.007-.066c0-.402.326-.729.728-.729.202 0 .384.084.516.217l.004-.004c1.086.797 2.414 1.283 3.865 1.283 3.62 0 6.556-2.936 6.556-6.556s-2.936-6.556-6.556-6.556c-3.621 0-6.556 2.936-6.556 6.556 0 1 .241 1.935.64 2.783l-.128.128c.266.108.455.368.455.672l.006.068c0 .4-.325.727-.727.727-.327 0-.593-.221-.685-.516l-.004.002c-.629-1.142-.99-2.455-.99-3.853 0-4.418 3.582-8 8-8s8 3.582 8 8-3.582 8-8 8z"/></svg>