<!DOCTYPE svg PUBLIC "-//W3C//DTD SVG 1.1//EN" "http://www.w3.org/Graphics/SVG/1.1/DTD/svg11.dtd" [
	<!ENTITY ns_flows "http://ns.adobe.com/Flows/1.0/">
]><svg xmlns="http://www.w3.org/2000/svg" width="16" height="15" viewBox="-0.718 -0.79 16 15" enable-background="new -0.718 -0.79 16 15"><path fill-rule="evenodd" clip-rule="evenodd" fill="#2E2B34" d="M14.542 6.326l-.006-4.983c-.11-.757-.735-1.339-1.499-1.343l-11.575.006c-.812.037-1.459.72-1.462 1.564l.007 7.965c.039.835.702 1.502 1.522 1.502h.813v.004l2.258-.004c.422 0 .765-.354.765-.788 0-.436-.343-.789-.765-.789l-3.063.006v-.017l1.07.008c-.872-.018-1.039-.136-1.071-.827l-.005-6.071c.024-.8.174-.951 1.022-.976l10.453-.006.002 1.106-.008-1.097-1.021-.007c.89.019 1.014.171 1.029 1.224l.004 2.67-.007.034.007 3.955-5.353.005h-.027c-.245 0-.453.126-.593.31l-3.021 3.087c-.299.309-.299.808 0 1.115.299.309.784.309 1.083 0l2.87-2.935 4.245-.005v-.002h.813c.785 0 1.425-.612 1.512-1.398l-.005-3.284.006-.029zm-13.008-4.74l-.003.502v-.505h.485l-.482.003zm10.491 7.87l.975-.007.007-1.035c-.02.9-.154 1.024-.982 1.042z"/></svg>