<!DOCTYPE svg PUBLIC "-//W3C//DTD SVG 1.1//EN" "http://www.w3.org/Graphics/SVG/1.1/DTD/svg11.dtd" [
	<!ENTITY ns_flows "http://ns.adobe.com/Flows/1.0/">
]><svg xmlns="http://www.w3.org/2000/svg" width="20" height="8" viewBox="0 0 20 8"><path fill-rule="evenodd" clip-rule="evenodd" fill="#6799D1" d="M16.281 8h-2.238c-1.574 0-2.915-1.061-3.457-2.55h-1.171c-.542 1.489-1.883 2.55-3.457 2.55h-2.238c-2.051 0-3.72-1.795-3.72-4 0-2.206 1.669-4 3.72-4h2.237c1.557 0 2.888 1.036 3.442 2.498h1.202c.554-1.462 1.885-2.498 3.442-2.498h2.238c2.051 0 3.719 1.794 3.719 4 0 2.205-1.668 4-3.719 4zm-10.323-6.146h-2.238c-1.1 0-1.995.963-1.995 2.146 0 1.184.895 2.146 1.996 2.146h2.237c.579 0 1.097-.271 1.462-.695h-1.077c-.756 0-1.372-.662-1.372-1.477 0-.813.616-1.476 1.372-1.476h1.035c-.362-.396-.864-.644-1.42-.644zm10.323 0h-2.238c-.557 0-1.059.248-1.421.644h.764c.757 0 1.372.662 1.372 1.476s-.615 1.477-1.372 1.477h-.805c.365.425.883.695 1.462.695h2.238c1.1 0 1.995-.962 1.995-2.146 0-1.183-.895-2.146-1.995-2.146z"/></svg>