<!DOCTYPE svg PUBLIC "-//W3C//DTD SVG 1.1//EN" "http://www.w3.org/Graphics/SVG/1.1/DTD/svg11.dtd" [
	<!ENTITY ns_flows "http://ns.adobe.com/Flows/1.0/">
]><svg xmlns="http://www.w3.org/2000/svg" width="16" height="16" viewBox="0 0 16 16"><path fill-rule="evenodd" clip-rule="evenodd" fill="#fff" d="M15.78 8.566l-.065.034-3.016 3.171c-.299.313-.782.313-1.081 0-.298-.312-.298-.817 0-1.13l1.749-1.839-8.034-.006c-.422 0-.764-.358-.764-.8s.342-.799.764-.799l8.07.006-1.785-1.877c-.298-.312-.298-.818 0-1.131.299-.312.782-.312 1.081 0l2.982 3.137.099.069c.153.161.225.373.22.583.005.21-.066.422-.22.582zm-1.272-4.556c-.423 0-.764-.358-.764-.8v-.167c-.022-1.129-.302-1.435-1.496-1.443l-9.363.005c-1.122.034-1.34.377-1.34 1.592l-.018-.734.006 10.71c.057.964.383 1.22 1.539 1.22l-1.539-.011v.018l12.214-.007-.002-1.041-.007 1.03-1.541.011c1.239 0 1.523-.299 1.546-1.444v-.167c0-.441.341-.8.764-.8.421 0 .764.358.764.8l.002.812h-.002v.8c0 .884-.684 1.599-1.527 1.599h-.812v.001l-10.594.006v-.008h-.811c-.832 0-1.501-.698-1.52-1.564l-.007-12.832c.002-.869.667-1.569 1.493-1.589l12.254-.007c.843.002 1.524.717 1.524 1.599v.8h.002l-.002.811c0 .442-.342.8-.763.8zm-12.981-2.404v.003l.475-.003h-.475zm10.919-.006l1.293.009.007 1.03.002-1.04-1.302.001z"/></svg>