<!DOCTYPE svg PUBLIC "-//W3C//DTD SVG 1.1//EN" "http://www.w3.org/Graphics/SVG/1.1/DTD/svg11.dtd" [
	<!ENTITY ns_flows "http://ns.adobe.com/Flows/1.0/">
]><svg xmlns="http://www.w3.org/2000/svg" width="16" height="14" viewBox="0 0 16 14"><path fill-rule="evenodd" clip-rule="evenodd" fill="#312E37" d="M12.543 9.631l.021.15.018.119h-.037l-.008.059-.015.052c-.12.303-.497.46-.841.355-.175-.054-.307-.168-.379-.305l-.021.019-.015-.141-.016-.145-.175-1.651 2.653-2.448-3.868-.7-1.936-2.94v.046l-1.892 2.915-3.789.723 2.571 2.393-.539 3.497 3.65-1.509 1.437.552-.012.021c.321.125.489.442.371.738l-.016.054c-.124.312-.513.476-.867.365l-.04-.021v.008l-.876-.361-4.484 1.847c-.248-.055-.466-.18-.611-.366l.618-4.335-3.445-3.227c.019-.221.131-.419.306-.575l4.849-.817 2.495-3.973c.181-.041.366-.041.545.003l2.494 3.97 4.833.814c.18.159.291.365.306.592l-3.428 3.214.143 1.008zm-.934 2.103l.913.794 2.298-2.008c.27-.237.708-.237.978 0s.27.621 0 .857l-2.711 2.369-.06.078c-.139.122-.321.179-.503.175-.182.004-.365-.053-.504-.175l-.059-.077-1.33-1.157c-.27-.236-.27-.62 0-.856.271-.237.709-.237.978 0z"/></svg>