<!DOCTYPE svg PUBLIC "-//W3C//DTD SVG 1.1//EN" "http://www.w3.org/Graphics/SVG/1.1/DTD/svg11.dtd" [
	<!ENTITY ns_flows "http://ns.adobe.com/Flows/1.0/">
]><svg xmlns="http://www.w3.org/2000/svg" width="24" height="24" viewBox="0 0 24 24"><circle fill="#DB5542" cx="12" cy="12" r="12"/><path fill="#fff" d="M16.363 7.796v-1.632h-.815v1.632h-1.631v.816h1.631v1.63h.815v-1.63h1.632v-.816zM13.633 6h-3.538c-1.794 0-3.29 1.324-3.29 2.78 0 1.487.983 2.673 2.67 2.673l.343-.014c-.11.209-.188.443-.188.689 0 .413.228.649.508.922l-.641.006c-2.056 0-3.494 1.414-3.494 2.771.001 1.338 1.735 2.173 3.79 2.173 2.342 0 3.785-1.328 3.785-2.666 0-1.07-.232-1.609-1.375-2.466-.328-.247-1.042-.75-1.042-1.089 0-.397.113-.592.711-1.059.612-.478 1.044-1.107 1.044-1.89 0-.853-.347-1.625-1.003-2h.929l.791-.83zm-1.2 9.104c.03.122.046.251.046.381 0 1.081-.696 1.925-2.693 1.925-1.42 0-2.446-.9-2.446-1.979 0-1.06 1.203-1.972 2.624-1.956.331.004.64.057.919.146.772.537 1.393.872 1.55 1.483zm-2.273-4.191c-.954-.029-1.86-.904-2.024-2.156-.166-1.251.474-2.209 1.427-2.181.953.029 1.768 1.056 1.932 2.307.165 1.252-.383 2.058-1.335 2.03z"/></svg>