<!DOCTYPE svg PUBLIC "-//W3C//DTD SVG 1.1//EN" "http://www.w3.org/Graphics/SVG/1.1/DTD/svg11.dtd" [
	<!ENTITY ns_flows "http://ns.adobe.com/Flows/1.0/">
]><svg xmlns="http://www.w3.org/2000/svg" width="16" height="16" viewBox="-0.687 -0.729 16 16" enable-background="new -0.687 -0.729 16 16"><path fill-rule="evenodd" clip-rule="evenodd" fill="#fff" d="M13.897 10.897c-.404 0-.732.324-.732.728l.001.173c-.026 1.022-.303 1.291-1.479 1.292l-10.218.006v-.017l1.474.011c-1.108 0-1.42-.232-1.475-1.109l-.005-9.741.017.668c0-1.105.209-1.418 1.286-1.448l8.967-.004c1.134.008 1.407.282 1.433 1.291l-.001.173c0 .401.328.727.732.727s.73-.326.73-.727l.002-.738h-.002v-.728c0-.8-.65-1.449-1.455-1.454l-11.775.005c-.776.035-1.396.666-1.397 1.445l.006 11.703c.035.773.671 1.391 1.457 1.391h.777v.006l10.148-.005v-.001h.777c.809 0 1.463-.651 1.463-1.455v-.727h.002l-.002-.737c0-.403-.326-.728-.731-.728zm-.727-9.443l-.003.877-.006-.868-1.232-.008 1.241-.001zm-11.707.006h.467l-.467.003v-.003zm10.238 11.63l1.46-.011.006-.867.003.877-1.469.001zm2.874-7.012l-7.774.005 1.719-1.634c.287-.272.287-.713 0-.984-.288-.272-.753-.272-1.041 0l-2.871 2.73-.096.06c-.147.14-.216.325-.212.508-.004.183.065.367.213.507l.11.075 2.857 2.716c.288.272.753.272 1.041 0 .287-.271.287-.711 0-.983l-1.685-1.603 7.739-.005c.408 0 .736-.312.736-.696.001-.385-.328-.696-.736-.696z"/></svg>