<!DOCTYPE svg PUBLIC "-//W3C//DTD SVG 1.1//EN" "http://www.w3.org/Graphics/SVG/1.1/DTD/svg11.dtd" [
	<!ENTITY ns_flows "http://ns.adobe.com/Flows/1.0/">
]><svg xmlns="http://www.w3.org/2000/svg" width="24" height="24" viewBox="0 0 24 24"><circle fill="#F9A61C" cx="12" cy="12" r="12"/><path fill-rule="evenodd" clip-rule="evenodd" fill="#fff" d="M11.784 8.487c.956 0 1.855.425 2.517 1.086v.004c0-.319.215-.559.51-.559h.076c.461 0 .56.439.56.579l.003 4.944c-.034.322.333.488.537.281.794-.818 1.74-4.192-.492-6.152-2.087-1.822-4.884-1.521-6.369-.497-1.583 1.091-2.597 3.504-1.609 5.77 1.068 2.475 4.136 3.211 5.955 2.477.924-.373 1.35.873.391 1.283-1.446.615-5.476.553-7.358-2.709-1.272-2.2-1.204-6.074 2.168-8.083 2.582-1.538 5.983-1.109 8.034 1.033 2.146 2.241 2.02 6.433-.07 8.066-.948.74-2.359.02-2.346-1.061l-.014-.354c-.658.655-1.536 1.037-2.492 1.037-1.89 0-3.557-1.664-3.557-3.551-.001-1.911 1.666-3.594 3.556-3.594zm2.378 3.457c-.071-1.385-1.1-2.217-2.338-2.217h-.048c-1.434 0-2.227 1.127-2.227 2.405 0 1.433.961 2.337 2.219 2.337 1.405 0 2.33-1.029 2.394-2.245v-.28z"/></svg>