<!DOCTYPE svg PUBLIC "-//W3C//DTD SVG 1.1//EN" "http://www.w3.org/Graphics/SVG/1.1/DTD/svg11.dtd" [
	<!ENTITY ns_flows "http://ns.adobe.com/Flows/1.0/">
]><svg xmlns="http://www.w3.org/2000/svg" width="16" height="16" viewBox="0 0 16 16"><path fill-rule="evenodd" clip-rule="evenodd" fill="#fff" d="M6.727 4.574c.283-.283.744-.283 1.027 0l2.852 2.887.047.031c.145.145.214.334.211.522.003.189-.066.378-.211.522l-.047.031-2.827 2.864c-.284.283-.745.283-1.028 0-.284-.285-.284-.745 0-1.029l2.358-2.388-2.382-2.411c-.286-.284-.286-.744 0-1.029zm1.273 11.426c-1.703 0-3.264-.555-4.561-1.463-.316-.078-.556-.352-.556-.692l-.006-.067c0-.401.325-.727.727-.727.202 0 .385.082.516.215l.005-.004c1.086.798 2.415 1.285 3.865 1.285 3.621 0 6.557-2.936 6.557-6.557 0-3.621-2.936-6.557-6.557-6.557s-6.557 2.936-6.557 6.557c0 .999.241 1.936.64 2.784l-.128.128c.266.108.454.367.454.672l.007.067c0 .402-.326.728-.727.728-.327 0-.593-.22-.685-.517l-.004.004c-.63-1.144-.99-2.458-.99-3.856 0-4.419 3.582-8 8-8s8 3.582 8 8c0 4.419-3.582 8-8 8z"/></svg>