<!DOCTYPE svg PUBLIC "-//W3C//DTD SVG 1.1//EN" "http://www.w3.org/Graphics/SVG/1.1/DTD/svg11.dtd" [
	<!ENTITY ns_flows "http://ns.adobe.com/Flows/1.0/">
]><svg xmlns="http://www.w3.org/2000/svg" width="17" height="16" viewBox="-0.451 0 17 16" enable-background="new -0.451 0 17 16"><path fill-rule="evenodd" clip-rule="evenodd" fill="#fff" d="M8.275 0c-4.57 0-8.275 3.582-8.275 8 0 1.398.373 2.711 1.025 3.854l.004-.004c.095.297.37.517.708.517.416 0 .752-.325.752-.728l-.007-.067c0-.305-.195-.564-.47-.672l.123-.119c-.414-.847-.653-1.792-.653-2.792 0-3.621 3.036-6.557 6.781-6.557 3.745 0 6.782 2.936 6.782 6.557s-3.037 6.557-6.782 6.557c-1.495 0-2.871-.475-3.992-1.267-.137-.14-.328-.229-.543-.229-.416 0-.752.325-.752.727l.007.068c0 .326.227.592.533.684 1.347.92 2.984 1.471 4.759 1.471 4.569 0 8.274-3.582 8.274-8s-3.705-8-8.274-8zm1.1 5.191c-.264-.273-.689-.273-.952 0l-2.64 2.775-.043.03c-.134.139-.198.321-.196.503-.002.181.062.363.196.502l.043.029 2.618 2.752c.262.273.689.273.951 0 .264-.272.264-.715 0-.988l-2.182-2.295 2.205-2.319c.262-.273.262-.716 0-.989z"/></svg>