<!DOCTYPE svg PUBLIC "-//W3C//DTD SVG 1.1//EN" "http://www.w3.org/Graphics/SVG/1.1/DTD/svg11.dtd" [
	<!ENTITY ns_flows "http://ns.adobe.com/Flows/1.0/">
]><svg xmlns="http://www.w3.org/2000/svg" width="15" height="18" viewBox="-0.743 -0.708 15 18" enable-background="new -0.743 -0.708 15 18"><path fill-rule="evenodd" clip-rule="evenodd" fill="#fff" d="M2.988 5.285l7.53-.007c.414 0 .75-.338.75-.754 0-.417-.336-.754-.75-.754l-7.53.007c-.414 0-.75.338-.75.754.001.416.336.754.75.754zm10.519 5.171l-.006-9.012c-.034-.8-.684-1.439-1.485-1.444l-10.578.006c-.796.037-1.431.693-1.431 1.501v.801h-.007l.006 11.968h.001v.803c0 .832.671 1.506 1.5 1.506h.75v.006l2.214-.004c.414 0 .75-.338.75-.756 0-.416-.336-.752-.75-.752l-2.408.004.943-.023c-1.203 0-1.5-.227-1.5-1.508l.01 1.532h-.01l-.006-13.571h.016l-.01 1.52c0-1.28.297-1.508 1.5-1.508l-.51-.013 8.7-.004-.689.017c1.154 0 1.471.22 1.495 1.365l.005 6.905-2.954.003v.002h-.797c-.828 0-1.499.676-1.499 1.508v.754h-.006l.005 3.694c-.024.22.037.446.204.614.075.075.161.13.253.167.09.038.188.06.292.06.234 0 .435-.114.572-.284l5.098-5.139.02-.018c.194-.137.33-.353.33-.608l-.018-.092zm-1.506-8.282l-.004-.667h.004v.667zm-3.747 11.826l-.001-1.234c.007-1.164.268-1.458 1.521-1.458l-1.513.01-.01 1.299-.001-1.31 2.678-.003-2.674 2.696zm-5.266-5.7l7.53-.007c.414 0 .75-.337.75-.754s-.336-.753-.75-.753l-7.53.006c-.414 0-.75.338-.75.754.001.416.336.754.75.754z"/></svg>