<!DOCTYPE svg PUBLIC "-//W3C//DTD SVG 1.1//EN" "http://www.w3.org/Graphics/SVG/1.1/DTD/svg11.dtd" [
	<!ENTITY ns_flows "http://ns.adobe.com/Flows/1.0/">
]><svg xmlns="http://www.w3.org/2000/svg" width="16" height="16" viewBox="-0.65 -0.935 16 16" enable-background="new -0.65 -0.935 16 16"><path fill-rule="evenodd" clip-rule="evenodd" fill="#fff" d="M13.249 7.262c-.386 0-.698.326-.698.728l.004 3.691c-.007 1.126-.246 1.41-1.411 1.411l-9.744.006v-.016l1.405.01c-1.055 0-1.353-.233-1.406-1.107l-.004-9.742.016.666c0-1.107.199-1.419 1.229-1.449l9.224-.005c.386 0 .697-.326.697-.727s-.312-.728-.698-.728l-10.531.006c-.738.035-1.328.663-1.332 1.44l.006 11.713c.035.771.64 1.386 1.388 1.386h.741v.006l9.676-.005v-.001h.74c.771 0 1.396-.65 1.396-1.454v-.728h.005l-.006-4.373c0-.402-.312-.728-.697-.728zm-11.854-5.801h.451l-.451.003v-.003zm9.763 11.631l1.389-.01.008-1.247.001 1.256-1.398.001zm3.903-11.385c-.379-.395-.993-.395-1.372 0l-7.846 8.219c-.379.395-.379 1.035 0 1.431s.994.396 1.372 0l7.846-8.218c.379-.396.379-1.036 0-1.432z"/></svg>