<!DOCTYPE svg PUBLIC "-//W3C//DTD SVG 1.1//EN" "http://www.w3.org/Graphics/SVG/1.1/DTD/svg11.dtd" [
	<!ENTITY ns_flows "http://ns.adobe.com/Flows/1.0/">
]><svg xmlns="http://www.w3.org/2000/svg" width="19" height="16" viewBox="0 0 19 16"><path fill="#fff" d="M9.965 8.717c1.211-.876 2.008-2.292 2.008-3.897 0-2.658-2.162-4.82-4.82-4.82-2.657 0-4.82 2.162-4.82 4.82 0 1.605.797 3.021 2.008 3.897-2.549 1.094-4.341 3.628-4.341 6.575 0 .414.336.75.75.75s.75-.336.75-.75c0-3.117 2.536-5.652 5.653-5.652s5.653 2.536 5.653 5.652c0 .414.336.75.75.75s.75-.336.75-.75c0-2.947-1.791-5.48-4.341-6.575zm-6.132-3.897c0-1.831 1.489-3.32 3.319-3.32 1.831 0 3.32 1.489 3.32 3.32 0 1.83-1.489 3.319-3.32 3.319-1.829 0-3.319-1.489-3.319-3.319zM15.1 8.717c1.211-.876 2.008-2.292 2.008-3.897 0-2.658-2.162-4.82-4.819-4.82-.414 0-.75.336-.75.75s.336.75.75.75c1.83 0 3.319 1.489 3.319 3.32 0 1.83-1.489 3.319-3.319 3.319-.414 0-.75.336-.75.75s.336.75.75.75c3.117 0 5.652 2.536 5.652 5.652 0 .414.336.75.75.75s.75-.336.75-.75c-.001-2.946-1.792-5.479-4.341-6.574z"/></svg>