<!DOCTYPE svg PUBLIC "-//W3C//DTD SVG 1.1//EN" "http://www.w3.org/Graphics/SVG/1.1/DTD/svg11.dtd" [
	<!ENTITY ns_flows "http://ns.adobe.com/Flows/1.0/">
]><svg xmlns="http://www.w3.org/2000/svg" width="16" height="16" viewBox="-0.683 -0.728 16 16" enable-background="new -0.683 -0.728 16 16"><path fill-rule="evenodd" clip-rule="evenodd" fill="#fff" d="M13.817 10.898c-.4 0-.727.325-.727.728l.001.175c-.026 1.022-.301 1.29-1.474 1.29l1.469-.009.006-.868.003.877-11.635.006v-.016l1.466.009c-1.101 0-1.411-.231-1.466-1.107l-.005-9.752.017.677c0-1.105.208-1.418 1.279-1.448l8.917-.005c1.128.008 1.399.283 1.425 1.29l-.001.175c0 .402.326.728.727.728.402 0 .729-.326.729-.728l.002-.738h-.002v-.728c0-.801-.648-1.449-1.447-1.454l-11.712.005c-.771.036-1.388.666-1.389 1.445l.006 11.706c.035.771.667 1.389 1.448 1.389h.773v.007l10.091-.006v-.001h.773c.803 0 1.455-.651 1.455-1.454v-.728h.002l-.002-.737c0-.403-.326-.728-.729-.728zm-.721-9.444l-.003.877-.006-.868-1.226-.008 1.235-.001zm-11.642.006h.465l-.465.003v-.003zm13.576 5.27l-.095-.063-2.841-2.853c-.283-.284-.744-.284-1.029 0-.283.284-.283.745 0 1.028l1.701 1.708-7.686-.005c-.402 0-.727.326-.727.727s.325.728.727.728l7.651.006-1.666 1.673c-.283.284-.283.744 0 1.028.285.285.746.285 1.029 0l2.826-2.837.11-.079c.146-.146.214-.339.209-.531.005-.191-.063-.384-.209-.53z"/></svg>