<!DOCTYPE svg PUBLIC "-//W3C//DTD SVG 1.1//EN" "http://www.w3.org/Graphics/SVG/1.1/DTD/svg11.dtd" [
	<!ENTITY ns_flows "http://ns.adobe.com/Flows/1.0/">
]><svg xmlns="http://www.w3.org/2000/svg" width="15" height="16" viewBox="0 0 15 16"><path fill-rule="evenodd" clip-rule="evenodd" fill="#2F2C35" d="M15 12.539l-.492 1.168-.097-.053-1.868-.021-.95 2.248.009.119-1.256-.033-2.313-4.023c-.177.016-.347.053-.527.053-.185 0-.357-.039-.538-.055l-2.313 4.025-1.257.033.009-.119-.95-2.248-1.868.021-.097.053-.492-1.168 2.385-3.289c-.63-.935-1.011-2.045-1.011-3.252 0-3.313 2.745-5.998 6.132-5.998 3.387 0 6.133 2.685 6.133 5.998 0 1.211-.383 2.324-1.018 3.26l2.379 3.281zm-4.153 1.533l.735-1.652.002-.129 1.519-.012-1.39-1.959c-.645.594-1.416 1.061-2.277 1.342l1.411 2.41zm-8.95-1.793l1.518.012.002.129.736 1.652 1.413-2.412c-.86-.283-1.63-.752-2.275-1.346l-1.394 1.965zm5.623-10.948c-2.636 0-4.772 2.089-4.772 4.667s2.137 4.667 4.772 4.667 4.772-2.089 4.772-4.667-2.137-4.667-4.772-4.667z"/></svg>