<!DOCTYPE svg PUBLIC "-//W3C//DTD SVG 1.1//EN" "http://www.w3.org/Graphics/SVG/1.1/DTD/svg11.dtd" [
	<!ENTITY ns_flows "http://ns.adobe.com/Flows/1.0/">
]><svg xmlns="http://www.w3.org/2000/svg" width="16" height="16" viewBox="0 0 16 16"><path fill-rule="evenodd" clip-rule="evenodd" fill="#81868C" d="M15.805 14.863l-2.134-2.131-.004.004-2.293-2.291-.964-.017-.004.006c-.963.953-2.285 1.544-3.747 1.544-2.942 0-5.327-2.385-5.327-5.324 0-2.94 2.385-5.323 5.327-5.323 2.941 0 5.326 2.383 5.326 5.323 0 .486-.086.948-.209 1.395l.078.078c-.11.119-.182.275-.182.451l.006.062c0 .368.299.667.667.667.189 0 .358-.081.48-.208l.032.032.059-.167.072-.206c.222-.658.354-1.357.354-2.09.002-3.683-2.986-6.668-6.67-6.668s-6.672 2.985-6.672 6.667 2.987 6.667 6.672 6.667c1.6 0 3.066-.563 4.216-1.501l3.975 3.972c.261.26.683.26.942 0s.259-.682 0-.942z"/></svg>