<!DOCTYPE svg PUBLIC "-//W3C//DTD SVG 1.1//EN" "http://www.w3.org/Graphics/SVG/1.1/DTD/svg11.dtd" [
	<!ENTITY ns_flows "http://ns.adobe.com/Flows/1.0/">
]><svg xmlns="http://www.w3.org/2000/svg" width="16" height="16" viewBox="0 0 16 16"><path fill-rule="evenodd" clip-rule="evenodd" fill="#fff" d="M13.438 16c-.752 0-1.424-.332-1.891-.85l-.012-.006-2.943-2.922c-.704.271-1.46.436-2.259.436-3.498 0-6.333-2.834-6.333-6.33 0-.909.214-1.76.566-2.538.015-.148.07-.293.184-.408l.027-.018.067-.137.057.054c.255-.141.576-.114.791.101l2.995 3.013 1.717-1.73-2.988-3.005c-.206-.206-.242-.509-.124-.757l-.06-.061.15-.074.034-.051c.129-.128.296-.191.463-.193.754-.328 1.578-.524 2.454-.524 3.497 0 6.333 2.833 6.333 6.328l-.021.213.014.063.006.063c0 .367-.299.666-.666.666-.295 0-.535-.193-.627-.457h-.088c.021-.188.057-.37.057-.563 0-2.773-2.248-5.021-5.023-5.021-.423 0-.829.066-1.219.169l2.586 2.6.062.094.064.043c.26.26.26.682 0 .942l-2.657 2.676c-.261.26-.682.26-.942 0l-.069-.103-.07-.045-2.598-2.615c-.11.403-.182.821-.182 1.26 0 2.773 2.25 5.021 5.024 5.021.939 0 1.807-.275 2.559-.723l.976.977-.006.004 1.143 1.133.146.145 1.344 1.334.016.025.006.006.145.145.07.068.012-.014c.205.146.441.25.713.25.688 0 1.246-.557 1.246-1.242 0-.281-.111-.527-.268-.734l.066-.068c-.104-.031-.203-.078-.283-.158l-3.24-3.217c-.26-.262-.26-.684 0-.943s.684-.26.943 0l3.24 3.217c.076.078.123.172.154.268l.053-.053c.398.449.648 1.035.648 1.685 0 1.415-1.146 2.561-2.562 2.561z"/></svg>