<!DOCTYPE svg PUBLIC "-//W3C//DTD SVG 1.1//EN" "http://www.w3.org/Graphics/SVG/1.1/DTD/svg11.dtd" [
	<!ENTITY ns_flows "http://ns.adobe.com/Flows/1.0/">
]><svg xmlns="http://www.w3.org/2000/svg" width="16" height="16" viewBox="-2.6 0 16 16" enable-background="new -2.6 0 16 16"><path fill-rule="evenodd" clip-rule="evenodd" fill="#fff" d="M10.795 4.386c0-.441-.357-.8-.799-.8s-.8.358-.8.8l.004 8.436c-.004 1.258-.275 1.572-1.623 1.572l1.613-.011.011-1.474.001 1.484-7.596.007v-.017l1.611.011c-1.21 0-1.552-.256-1.612-1.218l-.005-10.712.018.734c0-1.215.229-1.559 1.406-1.592l6.583-.006c.441 0 .799-.358.799-.799 0-.442-.357-.8-.799-.8l-8.079.006c-.847.037-1.524.729-1.528 1.585l.007 12.873c.038.85.733 1.528 1.592 1.528h.85v.007l5.897-.006v-.001h.85c.884 0 1.6-.716 1.6-1.599v-.801h.006l-.007-9.207zm-9.196-2.78h.505l-.505.003v-.003zm2.798 10.989c0 .552.448.999 1 .999s.999-.447.999-.999-.447-.999-.999-.999-1 .447-1 .999zm3.599-9.796c0-.221-.179-.4-.4-.4h-3.598c-.221 0-.4.179-.4.4 0 .221.179.4.4.4h3.598c.221 0 .4-.179.4-.4z"/></svg>