<!DOCTYPE svg PUBLIC "-//W3C//DTD SVG 1.1//EN" "http://www.w3.org/Graphics/SVG/1.1/DTD/svg11.dtd" [
	<!ENTITY ns_flows "http://ns.adobe.com/Flows/1.0/">
]><svg xmlns="http://www.w3.org/2000/svg" width="24" height="24" viewBox="0 0 24 24"><circle fill="#2BA9E0" cx="12" cy="12" r="12"/><path fill="#fff" d="M16.771 9.554l.008.318c0 3.253-2.477 7.005-7.005 7.005-1.391 0-2.684-.408-3.774-1.105.193.021.389.033.587.033 1.154 0 2.215-.393 3.057-1.053-1.077-.021-1.986-.733-2.299-1.711.15.028.304.045.463.045.225 0 .443-.031.648-.087-1.125-.228-1.975-1.222-1.975-2.414v-.031c.333.185.712.294 1.116.308-.661-.441-1.095-1.195-1.095-2.049 0-.451.122-.875.333-1.238 1.214 1.49 3.029 2.47 5.075 2.572-.042-.18-.064-.368-.064-.561 0-1.359 1.103-2.461 2.462-2.461.707 0 1.348.299 1.797.776.561-.11 1.088-.315 1.563-.598-.185.576-.574 1.058-1.082 1.362.498-.058.973-.191 1.414-.386-.33.494-.747.928-1.229 1.275z"/></svg>