<!DOCTYPE svg PUBLIC "-//W3C//DTD SVG 1.1//EN" "http://www.w3.org/Graphics/SVG/1.1/DTD/svg11.dtd" [
	<!ENTITY ns_flows "http://ns.adobe.com/Flows/1.0/">
]><svg xmlns="http://www.w3.org/2000/svg" width="16" height="20" viewBox="0 -5.47 16 20" enable-background="new 0 -5.47 16 20"><path fill-rule="evenodd" clip-rule="evenodd" fill="#2E2B34" d="M16 8.557l-1.113.968-.009.006-.033-.006h-5.41l1.01 3.521.004.005-.569 1.212-.02.002-.002.008-2.089.727-.001-.002-.001.002-1.267-.489-.003-.02-3.169-5.647h-3.3280000000000003v-8.844000000000001h13.11l.009.013 1.045.674-.004.025 1.785 7.763.055.082zm-13.227-7.196h-1.387v6.123h1.387v-6.123zm10.115.013l-.019-.013h-8.709v6.035l3.469 6.15.043.015 1.275-.425.026-.064-1.39-4.902h.047l-.003-.005h6.851l-1.59-6.791z"/></svg>