<!DOCTYPE svg PUBLIC "-//W3C//DTD SVG 1.1//EN" "http://www.w3.org/Graphics/SVG/1.1/DTD/svg11.dtd" [
	<!ENTITY ns_flows "http://ns.adobe.com/Flows/1.0/">
]><svg xmlns="http://www.w3.org/2000/svg" width="24" height="24" viewBox="0 0 24 24"><path d="M12 0c-6.627 0-12 5.373-12 12 0 6.631 5.373 12 12 12 6.628 0 12-5.369 12-12 0-6.627-5.372-12-12-12z"/><path fill-rule="evenodd" clip-rule="evenodd" fill="#fff" d="M11.828 16.629h.961s.29-.031.439-.193c.135-.148.131-.43.131-.43s-.019-1.313.581-1.507c.589-.19 1.349 1.269 2.151 1.831.607.422 1.068.332 1.068.332l2.149-.033s1.124-.07.591-.969c-.043-.074-.311-.666-1.598-1.879-1.348-1.274-1.166-1.066.457-3.267.988-1.342 1.383-2.159 1.259-2.511-.117-.334-.845-.246-.845-.246l-2.418.018s-.18-.026-.313.056c-.13.079-.214.264-.214.264s-.383 1.037-.894 1.919c-1.077 1.86-1.508 1.96-1.684 1.843-.41-.27-.308-1.081-.308-1.658 0-1.805.269-2.555-.523-2.751-.264-.064-.457-.105-1.13-.114-.862-.009-1.593.003-2.007.208-.272.137-.484.444-.354.462.161.021.522.1.713.363.248.343.239 1.113.239 1.113s.143 2.124-.332 2.388c-.326.182-.773-.187-1.734-1.878-.492-.864-.863-1.819-.863-1.819s-.072-.179-.2-.275c-.155-.115-.372-.153-.372-.153l-2.299.015s-.344.012-.471.164c-.113.135-.008.416-.008.416s1.799 4.283 3.837 6.442c1.869 1.982 3.991 1.849 3.991 1.849z"/></svg>