<!DOCTYPE svg PUBLIC "-//W3C//DTD SVG 1.1//EN" "http://www.w3.org/Graphics/SVG/1.1/DTD/svg11.dtd" [
	<!ENTITY ns_flows "http://ns.adobe.com/Flows/1.0/">
]><svg xmlns="http://www.w3.org/2000/svg" width="24" height="24" viewBox="0 0 24 24"><circle fill="#37609F" cx="12" cy="12" r="12"/><path fill-rule="evenodd" clip-rule="evenodd" fill="#fff" d="M11.828 16.629h.961s.291-.031.44-.193c.135-.15.131-.432.131-.432s-.019-1.312.58-1.504c.59-.191 1.35 1.27 2.152 1.828.607.424 1.068.332 1.068.332l2.149-.031s1.124-.07.591-.969c-.043-.072-.311-.666-1.598-1.881-1.348-1.272-1.166-1.065.456-3.266.988-1.339 1.384-2.159 1.26-2.509-.117-.333-.845-.246-.845-.246l-2.418.016s-.18-.025-.313.056c-.131.08-.214.265-.214.265s-.383 1.036-.894 1.919c-1.077 1.861-1.508 1.96-1.684 1.843-.41-.269-.308-1.081-.308-1.659 0-1.804.269-2.556-.523-2.75-.263-.065-.457-.107-1.129-.115-.863-.009-1.593.004-2.007.208-.274.139-.486.444-.356.461.16.022.522.1.713.365.248.343.24 1.113.24 1.113s.142 2.123-.333 2.387c-.326.181-.773-.189-1.733-1.877-.492-.863-.864-1.82-.864-1.82s-.072-.178-.2-.274c-.154-.116-.371-.152-.371-.152l-2.299.014s-.345.011-.471.164c-.114.135-.009.417-.009.417s1.799 4.283 3.837 6.441c1.869 1.98 3.991 1.849 3.991 1.849z"/></svg>