<?xml version="1.0" encoding="utf-8"?>
<!-- Generator: Adobe Illustrator 18.0.0, SVG Export Plug-In . SVG Version: 6.00 Build 0)  -->
<!DOCTYPE svg PUBLIC "-//W3C//DTD SVG 1.1//EN" "http://www.w3.org/Graphics/SVG/1.1/DTD/svg11.dtd">
<svg version="1.1" id="Layer_1" xmlns="http://www.w3.org/2000/svg" xmlns:xlink="http://www.w3.org/1999/xlink" x="0px" y="0px"
	 viewBox="0 0 250 250" enable-background="new 0 0 250 250" xml:space="preserve">
<g>
	<g>
		<circle fill-rule="evenodd" clip-rule="evenodd" fill="#F2F2F2" cx="125" cy="125" r="125"/>
	</g>
</g>
<path fill-rule="evenodd" clip-rule="evenodd" fill="#898989" d="M96.6,164.4c0-4.1,0-75.8,0-78.7c0-3.7,3.8-6.4,7.5-4.2
	c3,1.7,63,36.3,68.1,39.3c3.4,1.9,3.3,6.6,0,8.5c-3.7,2.2-63.9,36.9-68.3,39.3C100.8,170.4,96.6,168.4,96.6,164.4z"/>
<path fill-rule="evenodd" clip-rule="evenodd" fill="#898989" d="M15.6,125c0,60.3,49.1,109.4,109.4,109.4S234.4,185.3,234.4,125
	S185.3,15.6,125,15.6S15.6,64.7,15.6,125z M24.4,125C24.4,69.5,69.5,24.4,125,24.4S225.6,69.5,225.6,125S180.5,225.6,125,225.6
	S24.4,180.5,24.4,125z"/>
</svg>
