<?xml version="1.0" encoding="utf-8"?>
<!-- Generator: Adobe Illustrator 15.1.0, SVG Export Plug-In  -->
<!DOCTYPE svg PUBLIC "-//W3C//DTD SVG 1.1//EN" "http://www.w3.org/Graphics/SVG/1.1/DTD/svg11.dtd" [
	<!ENTITY ns_flows "http://ns.adobe.com/Flows/1.0/">
]>
<svg version="1.1"
	 xmlns="http://www.w3.org/2000/svg" xmlns:xlink="http://www.w3.org/1999/xlink" xmlns:a="http://ns.adobe.com/AdobeSVGViewerExtensions/3.0/"
	 x="0px" y="0px" width="115px" height="29px" viewBox="0 -6.602 115 29" enable-background="new 0 -6.602 115 29"
	 xml:space="preserve">
<defs>
</defs>
<g>
	<g>
		<path fill="#FFFFFF" d="M0.307,15.577h3.308V5.171H0.307V15.577z M1.972,0.133C0.854,0.133,0,0.99,0,2.024
			c0,1.078,0.854,1.914,1.972,1.914c1.118,0,1.972-0.88,1.972-1.914C3.943,0.946,3.089,0.133,1.972,0.133z M13.649,1.673
			c-0.898-0.418-2.016-0.595-3.309-0.595H6.31v14.499h3.352v-4.752h0.373c1.271,0,2.3-0.176,3.133-0.484
			c2.278-0.857,3.001-2.729,3.001-4.4C16.169,3.872,15.271,2.421,13.649,1.673z M11.656,7.877c-0.373,0.176-0.854,0.241-1.424,0.241
			h-0.57V3.784h0.504c0.657,0,1.161,0.088,1.534,0.309c0.679,0.396,0.985,1.1,0.985,1.848C12.685,6.864,12.357,7.547,11.656,7.877z
			 M26.904,8.866c0-2.529-1.314-3.96-4.513-3.96c-1.643,0-3.045,0.396-4.272,1.013l1.03,2.09c0.745-0.396,1.753-0.639,2.629-0.639
			c1.117,0,1.818,0.396,1.818,1.365v0.109l-1.644,0.066c-1.051,0.043-1.994,0.242-2.738,0.638c-1.074,0.572-1.731,1.431-1.731,2.838
			c0,2.003,1.49,3.41,3.527,3.41c1.293,0,2.191-0.483,2.892-1.101l0.46,0.881h2.717c-0.176-0.572-0.176-1.408-0.176-2.047V8.866z
			 M23.596,12.871c-0.241,0.153-0.789,0.374-1.512,0.374c-0.789,0-1.293-0.352-1.293-1.078c0-0.439,0.154-0.704,0.46-0.902
			c0.285-0.176,0.701-0.264,1.227-0.285l1.117-0.045V12.871z M35.755,4.906c-1.271,0-2.432,0.506-3.483,1.32l-0.329-1.056h-2.826
			v10.406h3.308V8.536c0.613-0.483,1.424-0.77,2.104-0.77c1.227,0,1.402,0.924,1.402,2.002v5.809h3.309V8.778
			C39.239,5.566,37.42,4.906,35.755,4.906z M48.046,4.973c-0.307-0.044-0.92-0.066-1.161-0.066c-3.527,0-5.916,2.311-5.916,5.544
			c0,3.389,2.607,5.347,6.244,5.347c1.227,0,2.936-0.22,4.141-0.813V0h-3.309V4.973z M48.046,12.981
			c-0.285,0.088-0.723,0.109-0.964,0.109c-1.512,0-2.739-0.924-2.739-2.684s1.051-2.795,2.717-2.795
			c0.417,0,0.679,0.022,0.986,0.066V12.981z M62.639,8.866c0-2.529-1.314-3.96-4.514-3.96c-1.644,0-3.046,0.396-4.273,1.013
			l1.03,2.09c0.745-0.396,1.753-0.639,2.629-0.639c1.118,0,1.819,0.396,1.819,1.365v0.109l-1.643,0.066
			c-1.052,0.043-1.994,0.242-2.739,0.638c-1.074,0.572-1.731,1.431-1.731,2.838c0,2.003,1.49,3.41,3.527,3.41
			c1.293,0,2.191-0.483,2.893-1.101l0.461,0.881h2.715c-0.174-0.572-0.174-1.408-0.174-2.047V8.866z M59.33,12.871
			c-0.242,0.153-0.789,0.374-1.513,0.374c-0.788,0-1.292-0.352-1.292-1.078c0-0.439,0.153-0.704,0.46-0.902
			c0.285-0.176,0.702-0.264,1.228-0.285l1.117-0.045V12.871z M66.975,12.188c-0.963,0-1.752,0.771-1.752,1.805
			c0,1.033,0.789,1.804,1.752,1.804c0.965,0,1.754-0.771,1.754-1.804C68.729,12.959,67.939,12.188,66.975,12.188z M79.244,13.003
			c-2.717,0-4.426-1.87-4.426-4.576c0-2.486,1.357-4.708,4.471-4.708c1.357,0,2.65,0.33,3.855,0.968v-3.08
			c-1.008-0.418-2.322-0.682-3.943-0.682c-4.887,0-7.953,3.388-7.953,7.546c0,4.246,2.584,7.326,7.58,7.326
			c1.535,0,3.199-0.264,4.973-1.231l-0.92-2.641C81.807,12.563,80.756,13.003,79.244,13.003z M89.717,12.894
			c-0.459,0-0.744-0.177-0.744-0.814V0h-3.309v12.915c0,1.893,1.051,2.838,3.066,2.838c0.658,0,1.535-0.109,2.279-0.418
			l-0.637-2.553C90.133,12.871,89.826,12.894,89.717,12.894z M102.271,5.171h-3.309v7.26c-0.416,0.374-0.965,0.572-1.578,0.572
			c-0.744,0-1.205-0.309-1.467-0.792c-0.154-0.286-0.221-0.638-0.221-1.101V5.171h-3.307v6.139c0,1.077,0.152,1.803,0.393,2.375
			c0.746,1.717,2.346,2.112,3.354,2.112c1.357,0,2.365-0.571,3.068-1.21l0.459,0.99h2.783c-0.176-0.572-0.176-1.408-0.176-1.914
			V5.171z M109.785,4.906c-0.678,0-1.248,0.088-1.773,0.198V0h-3.309v15.005c1.096,0.572,2.387,0.792,3.746,0.792
			c3.703,0,6.551-2.134,6.551-5.786C115,6.755,112.678,4.906,109.785,4.906z M108.996,13.091c-0.307,0-0.656-0.021-0.984-0.109
			V7.788c0.307-0.109,0.656-0.176,1.203-0.176c1.426,0,2.41,1.078,2.41,2.619C111.625,11.881,110.641,13.091,108.996,13.091z"/>
	</g>
</g>
</svg>
