<!DOCTYPE svg PUBLIC "-//W3C//DTD SVG 1.1//EN" "http://www.w3.org/Graphics/SVG/1.1/DTD/svg11.dtd" [
	<!ENTITY ns_flows "http://ns.adobe.com/Flows/1.0/">
]><svg xmlns="http://www.w3.org/2000/svg" width="12" height="13" viewBox="0 0 12 13"><path fill-rule="evenodd" clip-rule="evenodd" fill="#2E2B34" d="M12 12.411c0 .325-.27.589-.602.589-.333 0-.603-.264-.603-.589v-.008h-.035c-.29-2.307-2.258-4.101-4.681-4.138l-.079.008-.077-.008c-2.423.038-4.39 1.832-4.681 4.138h-.034l.001.008c0 .325-.27.589-.602.589-.333 0-.602-.264-.602-.589l-.005-.056c0-.099.031-.188.074-.269.318-2.04 1.676-3.743 3.552-4.534-1.113-.744-1.845-1.995-1.845-3.416 0-2.284 1.89-4.136 4.219-4.136 2.331 0 4.219 1.852 4.219 4.136 0 1.419-.73 2.671-1.842 3.416 1.882.793 3.244 2.504 3.556 4.555.036.077.062.159.062.249l.005.055zm-2.986-8.273c0-1.632-1.35-2.955-3.014-2.955-1.665 0-3.014 1.322-3.014 2.955 0 1.632 1.35 2.955 3.014 2.955 1.664 0 3.014-1.323 3.014-2.955z"/></svg>