<?xml version="1.0" encoding="utf-8"?>
<!-- Generator: Adobe Illustrator 15.1.0, SVG Export Plug-In  -->
<!DOCTYPE svg PUBLIC "-//W3C//DTD SVG 1.1//EN" "http://www.w3.org/Graphics/SVG/1.1/DTD/svg11.dtd" [
	<!ENTITY ns_flows "http://ns.adobe.com/Flows/1.0/">
]>
<svg version="1.1"
	 xmlns="http://www.w3.org/2000/svg" xmlns:xlink="http://www.w3.org/1999/xlink" xmlns:a="http://ns.adobe.com/AdobeSVGViewerExtensions/3.0/"
	 x="0px" y="0px" width="16px" height="16px" viewBox="0 0 16 16" enable-background="new 0 0 16 16" xml:space="preserve">
<defs>
</defs>
<path fill-rule="evenodd" clip-rule="evenodd" fill="#FFFFFF" d="M7.292,6.195C7.426,6.062,7.602,5.998,7.777,6
	c0.176-0.002,0.352,0.063,0.486,0.196c0.012,0.013,0.017,0.03,0.029,0.043l2.662,2.617c0.264,0.262,0.264,0.688,0,0.952
	c-0.265,0.262-0.692,0.262-0.957,0l-2.22-2.182L5.535,9.828c-0.264,0.264-0.692,0.264-0.957,0c-0.264-0.262-0.264-0.688,0-0.951
	l2.685-2.639C7.274,6.225,7.279,6.208,7.292,6.195z M8,16c-1.703,0-3.264-0.557-4.561-1.463c-0.316-0.078-0.556-0.352-0.556-0.693
	l-0.007-0.066c0-0.402,0.326-0.729,0.728-0.729c0.202,0,0.384,0.084,0.516,0.217l0.004-0.004c1.086,0.797,2.414,1.283,3.865,1.283
	c3.62,0,6.556-2.936,6.556-6.556s-2.936-6.556-6.556-6.556c-3.621,0-6.556,2.936-6.556,6.556c0,1,0.241,1.935,0.64,2.783L1.945,10.9
	C2.211,11.008,2.4,11.268,2.4,11.572l0.006,0.068c0,0.4-0.325,0.727-0.727,0.727c-0.327,0-0.593-0.221-0.685-0.516l-0.004,0.002
	C0.361,10.711,0,9.398,0,8c0-4.418,3.582-8,8-8s8,3.582,8,8C16,12.418,12.418,16,8,16z"/>
</svg>
