<?xml version="1.0" encoding="utf-8"?>
<!-- Generator: Adobe Illustrator 15.1.0, SVG Export Plug-In  -->
<!DOCTYPE svg PUBLIC "-//W3C//DTD SVG 1.1//EN" "http://www.w3.org/Graphics/SVG/1.1/DTD/svg11.dtd" [
	<!ENTITY ns_flows "http://ns.adobe.com/Flows/1.0/">
]>
<svg version="1.1"
	 xmlns="http://www.w3.org/2000/svg" xmlns:xlink="http://www.w3.org/1999/xlink" xmlns:a="http://ns.adobe.com/AdobeSVGViewerExtensions/3.0/"
	 x="0px" y="0px" width="15px" height="14px" viewBox="0 0 15 14" enable-background="new 0 0 15 14" xml:space="preserve">
<defs>
</defs>
<path fill-rule="evenodd" clip-rule="evenodd" fill="#FFFFFF" d="M14.996,0.917C15,1.076,15,1.253,15,1.472L14.996,0.917z M13.475,0
	l1.516,0.01l0.006,0.907C14.978,0.02,14.817,0,13.475,0z M14.269,2.099l0.006,4.542c0,0.01-0.005,0.018-0.005,0.028l0.004,2.982
	c-0.047,0.771-0.686,1.388-1.484,1.388h-0.798v0.002l-4.168,0.004l-2.817,2.739c-0.293,0.288-0.769,0.288-1.062,0
	c-0.293-0.287-0.293-0.753,0-1.04l2.968-2.886C7.05,9.689,7.253,9.574,7.49,9.574h0.019c0.004,0,0.008,0,0.012,0l5.25-0.006
	l-0.002-1.271l-0.008,1.261l-0.96,0.007c0.897-0.018,0.964-0.174,0.968-1.275l-0.004-2.413c0-0.01,0.006-0.018,0.006-0.028
	l-0.002-2.39c-0.01-1.071-0.109-1.229-1.01-1.247l1.002,0.007l0.008,1.066l-0.002-1.076l-1.188,0.001c0.06,0,0.128,0,0.181,0.001
	l-0.233-0.001L2.483,2.214C1.667,2.239,1.526,2.385,1.502,3.129l0.004,5.698C1.543,9.452,1.72,9.55,2.585,9.564L1.507,9.558v0.015
	l3.008-0.005c0.415,0,0.751,0.329,0.751,0.735c0,0.407-0.336,0.736-0.751,0.736l-2.217,0.004v-0.004H1.501
	c-0.817,0-1.477-0.644-1.495-1.44L0,2.204c0.002-0.8,0.656-1.443,1.469-1.461l11.322-0.006C13.58,0.738,14.209,1.341,14.269,2.099z
	 M1.502,2.215l0,0.506l0.003-0.503l0.477-0.003L1.502,2.215z"/>
</svg>
