<!DOCTYPE svg PUBLIC "-//W3C//DTD SVG 1.1//EN" "http://www.w3.org/Graphics/SVG/1.1/DTD/svg11.dtd" [
	<!ENTITY ns_flows "http://ns.adobe.com/Flows/1.0/">
]><svg xmlns="http://www.w3.org/2000/svg" width="22" height="13" viewBox="264.502 400.5 22 13" enable-background="new 264.502 400.5 22 13"><path fill-rule="evenodd" clip-rule="evenodd" fill="#fff" d="M286.498 404.064c0-.359-.294-.649-.657-.649s-.657.291-.657.649l.003 6.854c-.003 1.022-.226 1.277-1.333 1.277l1.325-.009.008-1.197.001 1.206-19.369.005v-.014l1.323.008c-.994 0-1.274-.208-1.324-.989l-.004-8.704.015.596c0-.987.188-1.267 1.155-1.293l18.537-.005c.363 0 .657-.291.657-.649s-.294-.65-.657-.65l-19.766.006c-.696.031-1.252.593-1.254 1.288l.005 10.459c.031.69.602 1.242 1.307 1.242h.698v.005l17.975-.004v-.001h.698c.725 0 1.313-.582 1.313-1.299v-.65h.004l-.003-7.482zm-20.683-2.259h.415l-.415.002v-.002zm8.864 8.928c0 .449.367.812.821.812s.821-.363.821-.812c0-.449-.367-.812-.821-.812s-.821.363-.821.812"/><path fill="none" d="M0 0h595.28v841.89h-595.28z"/></svg>