<?xml version="1.0" encoding="utf-8"?>
<!-- Generator: Adobe Illustrator 15.1.0, SVG Export Plug-In  -->
<!DOCTYPE svg PUBLIC "-//W3C//DTD SVG 1.1//EN" "http://www.w3.org/Graphics/SVG/1.1/DTD/svg11.dtd" [
	<!ENTITY ns_flows "http://ns.adobe.com/Flows/1.0/">
]>
<svg version="1.1"
	 xmlns="http://www.w3.org/2000/svg" xmlns:xlink="http://www.w3.org/1999/xlink" xmlns:a="http://ns.adobe.com/AdobeSVGViewerExtensions/3.0/"
	 x="0px" y="0px" width="19px" height="16px" viewBox="0 0 19 16" enable-background="new 0 0 19 16" xml:space="preserve">
<defs>
</defs>
<path fill-rule="evenodd" clip-rule="evenodd" fill="#FFFFFF" d="M14.895,11.008c0.018,0.057,0.028,0.111,0.026,0.172l0.021,0.135
	h-0.043c-0.006,0.022-0.002,0.045-0.012,0.066l-0.016,0.06c-0.145,0.345-0.591,0.526-0.999,0.405
	c-0.209-0.062-0.364-0.19-0.45-0.348l-0.025,0.021l-0.018-0.16c-0.015-0.055-0.021-0.109-0.019-0.166l-0.208-1.886l3.152-2.8
	l-4.595-0.8l-2.299-3.36V2.4L7.163,5.732l-4.5,0.827l3.054,2.735l-0.64,3.997l4.334-1.725l1.706,0.631l-0.013,0.025
	c0.38,0.144,0.579,0.505,0.439,0.842l-0.018,0.063c-0.148,0.354-0.609,0.543-1.03,0.417c-0.018-0.005-0.03-0.018-0.047-0.023v0.01
	l-1.042-0.413l-5.325,2.109c-0.293-0.063-0.553-0.205-0.725-0.418L4.09,9.854L0,6.166c0.021-0.252,0.155-0.479,0.363-0.657
	l5.758-0.935l2.964-4.539c0.214-0.047,0.434-0.047,0.647,0.004l2.961,4.535l5.739,0.932c0.214,0.182,0.347,0.417,0.364,0.676
	l-4.073,3.673L14.895,11.008z M13.785,13.409l1.086,0.908l2.729-2.294c0.319-0.271,0.84-0.271,1.159,0
	c0.321,0.271,0.321,0.71,0,0.98l-3.219,2.707c-0.024,0.028-0.038,0.062-0.069,0.088c-0.165,0.14-0.383,0.205-0.598,0.201
	c-0.218,0.004-0.435-0.062-0.6-0.201c-0.029-0.025-0.044-0.059-0.068-0.088l-1.579-1.322c-0.321-0.271-0.321-0.708,0-0.979
	C12.945,13.139,13.466,13.139,13.785,13.409z"/>
</svg>
