<!DOCTYPE svg PUBLIC "-//W3C//DTD SVG 1.1//EN" "http://www.w3.org/Graphics/SVG/1.1/DTD/svg11.dtd" [
	<!ENTITY ns_flows "http://ns.adobe.com/Flows/1.0/">
]><svg xmlns="http://www.w3.org/2000/svg" width="16" height="16" viewBox="-0.424 0 16 16" enable-background="new -0.424 0 16 16"><path fill-rule="evenodd" clip-rule="evenodd" fill="#fff" d="M7.788 0c-4.301 0-7.788 3.582-7.788 8 0 1.398.351 2.712.965 3.855l.003-.004c.089.297.348.516.667.516.391 0 .708-.324.708-.727l-.007-.068c0-.304-.183-.563-.442-.672l.116-.118c-.39-.848-.614-1.792-.614-2.793 0-3.621 2.857-6.557 6.382-6.557s6.382 2.936 6.382 6.557c0 3.622-2.857 6.558-6.382 6.558-1.406 0-2.702-.475-3.757-1.266-.129-.141-.309-.23-.512-.23-.391 0-.708.324-.708.727l.007.068c0 .326.213.592.502.684 1.268.92 2.808 1.47 4.478 1.47 4.301 0 7.788-3.582 7.788-8s-3.487-8-7.788-8zm-.01 6.484c-.391 0-.708.326-.708.728l.002 4.431c0 .4.317.727.708.727.392 0 .708-.326.708-.727l-.002-4.432c0-.401-.317-.727-.708-.727zm.761-2.133c0-.431-.34-.781-.761-.781-.42 0-.76.35-.76.781l.003.024c0 .432.34.781.76.781s.761-.35.761-.781l-.003-.024z"/></svg>