<!DOCTYPE svg PUBLIC "-//W3C//DTD SVG 1.1//EN" "http://www.w3.org/Graphics/SVG/1.1/DTD/svg11.dtd" [
	<!ENTITY ns_flows "http://ns.adobe.com/Flows/1.0/">
]><svg xmlns="http://www.w3.org/2000/svg" width="16" height="18" viewBox="-0.821 -1.06 16 18" enable-background="new -0.821 -1.06 16 18"><path fill-rule="evenodd" clip-rule="evenodd" fill="#fff" d="M7.188 2.166v-.049l1.757 3.031 3.508.722-2.407 2.525.159 1.704.014.144.014.148.02-.02c.065.142.185.258.343.313.312.109.653-.055.763-.365l.014-.054.008-.06h.032l-.015-.12-.021-.161-.13-1.036 3.111-3.314c-.014-.233-.115-.445-.278-.609l-4.384-.84-2.263-4.09c-.163-.046-.331-.046-.495-.004l-2.263 4.095-4.398.843c-.159.16-.261.365-.277.593l3.124 3.327-.56 4.467c.132.192.33.322.555.378l4.066-1.903.795.372v-.007l.037.021c.321.112.674-.057.787-.378l.014-.056c.107-.304-.045-.63-.337-.76l.01-.022-1.303-.568-3.31 1.556.488-3.606-2.332-2.467 3.436-.746 1.718-3.004zm7.14 8.679c-.245-.244-.643-.244-.888 0l-2.083 2.068-.829-.819c-.243-.244-.641-.244-.886 0-.244.244-.244.641 0 .884l1.207 1.195.052.079c.126.125.292.184.457.18.166.004.331-.055.457-.18l.053-.079 2.46-2.444c.243-.243.243-.64 0-.884z"/></svg>