<!DOCTYPE svg PUBLIC "-//W3C//DTD SVG 1.1//EN" "http://www.w3.org/Graphics/SVG/1.1/DTD/svg11.dtd" [
	<!ENTITY ns_flows "http://ns.adobe.com/Flows/1.0/">
]><svg xmlns="http://www.w3.org/2000/svg" width="16" height="16" viewBox="-0.628 -2.15 16 16" enable-background="new -0.628 -2.15 16 16"><path fill-rule="evenodd" clip-rule="evenodd" fill="#fff" d="M14.744 3.89c0-.359-.301-.65-.671-.65-.369 0-.67.291-.67.65l.005 5.231c0 1.262-.022 1.277-1.362 1.277l1.363-.009v.009l-12.063.006v-.014l.86.006c-.679-.013-.828-.106-.861-.685l-.004-7.594c.023-.666.156-.791.859-.812l10.134-.005-4.977 4.331-3.539-2.846c-.262-.253-.686-.253-.947 0-.262.254-.262.665 0 .919l3.919 3.151.081.118c.145.14.337.195.526.181.172 0 .344-.063.475-.19l.061-.089 6.62-5.761.003-.005.114-.163c-.162-.542-.655-.946-1.265-.946l-12.097.006c-.724.016-1.307.585-1.308 1.291l.006 9.132c.018.702.604 1.27 1.333 1.27h.712v.005l10.64-.004v-.001h.712c.74 0 1.34-.583 1.34-1.301v-.65h.006l-.005-5.858zm-13.013-2.585l-.39.003v-.003h.39z"/></svg>