<!DOCTYPE svg PUBLIC "-//W3C//DTD SVG 1.1//EN" "http://www.w3.org/Graphics/SVG/1.1/DTD/svg11.dtd" [
	<!ENTITY ns_flows "http://ns.adobe.com/Flows/1.0/">
]><svg xmlns="http://www.w3.org/2000/svg" width="24" height="24" viewBox="0 0 24 24"><circle fill="#F48020" cx="12" cy="12" r="12"/><path fill="#fff" d="M12 12.084c1.896 0 3.434-1.537 3.434-3.434s-1.538-3.434-3.434-3.434-3.434 1.537-3.434 3.434 1.538 3.434 3.434 3.434zm0-5.123c.932 0 1.69.756 1.69 1.689s-.759 1.689-1.69 1.689-1.69-.756-1.69-1.689.758-1.689 1.69-1.689zm3.958 5.542c-.193-.39-.729-.714-1.444-.151-.964.76-2.514.76-2.514.76s-1.55 0-2.514-.761c-.715-.563-1.251-.239-1.444.151-.337.679.044 1.008.905 1.56.735.473 1.746.648 2.399.717l-.545.545-2.021 2.023c-.308.307-.308.805 0 1.111l.091.096c.308.307.806.307 1.116 0l2.021-2.025c.768.77 1.509 1.512 2.024 2.025.308.307.806.307 1.113 0l.091-.096c.311-.307.311-.805 0-1.111l-2.021-2.023-.548-.548c.653-.067 1.655-.245 2.385-.714.862-.551 1.243-.88.906-1.559z"/></svg>