<!DOCTYPE svg PUBLIC "-//W3C//DTD SVG 1.1//EN" "http://www.w3.org/Graphics/SVG/1.1/DTD/svg11.dtd" [
	<!ENTITY ns_flows "http://ns.adobe.com/Flows/1.0/">
]><svg xmlns="http://www.w3.org/2000/svg" width="18" height="19" viewBox="0 0 18 19"><path fill-rule="evenodd" clip-rule="evenodd" fill="#EC2127" d="M6.059 15.552l-.009-10.379c0-.477.384-.862.856-.862.473 0 .856.385.856.862l.008 10.379c0 .477-.383.863-.856.863s-.855-.387-.855-.863zm4.277 0l-.008-10.379c0-.477.384-.862.855-.862.473 0 .855.385.855.862l.008 10.378c0 .477-.384.863-.856.863-.471.001-.854-.386-.854-.862zm6.809-12.077l-7.647.004-.018.003-.018-.003h-.821l-.017.003-.016-.003-5.12.003.007 13.794h.012l-.011-1.752c0 1.464.338 1.725 1.711 1.725l-1.122.026 9.704-.006-.881-.021c1.349 0 1.696-.259 1.708-1.658l-.006-10.412c0-.476.383-.862.856-.862.472 0 .855.386.855.862l.007 12.095c-.002.951-.767 1.721-1.711 1.721h-.854v.001l-9.41.005v-.007h-.856c-.944 0-1.71-.771-1.71-1.725v-.916h-.002l-.007-12.87-.922.001c-.473 0-.856-.385-.856-.862s.383-.862.856-.862l1.636-.001.141-.029.14.029 4.992-.002-.003-.894c0-.475.383-.862.855-.862.16 0 .301.056.428.132.127-.076.268-.132.428-.132.473 0 .855.387.855.862l.004.892 6.813-.003c.472 0 .855.385.855.862 0 .476-.383.862-.855.862zm-2.527 13.795l-.001-1.413-.01 1.413h.011z"/></svg>