<?xml version="1.0" encoding="utf-8"?>
<!-- Generator: Adobe Illustrator 15.1.0, SVG Export Plug-In  -->
<!DOCTYPE svg PUBLIC "-//W3C//DTD SVG 1.1//EN" "http://www.w3.org/Graphics/SVG/1.1/DTD/svg11.dtd" [
	<!ENTITY ns_flows "http://ns.adobe.com/Flows/1.0/">
]>
<svg version="1.1"
	 xmlns="http://www.w3.org/2000/svg" xmlns:xlink="http://www.w3.org/1999/xlink" xmlns:a="http://ns.adobe.com/AdobeSVGViewerExtensions/3.0/"
	 x="0px" y="0px" width="18px" height="16px" viewBox="0 0 18 16" enable-background="new 0 0 18 16" xml:space="preserve">
<defs>
</defs>
<path fill-rule="evenodd" clip-rule="evenodd" fill="#FFFFFF" d="M14.719,6.415c-1.096,0-2.06-0.53-2.655-1.336l-4.02,1.825
	c0.104,0.354,0.178,0.721,0.178,1.108c0,0.379-0.071,0.739-0.171,1.087l4.013,1.822c0.596-0.807,1.56-1.337,2.655-1.337
	c1.812,0,3.281,1.437,3.281,3.207C18,14.563,16.53,16,14.719,16c-1.813,0-3.281-1.437-3.281-3.208c0-0.12,0.022-0.233,0.036-0.35
	L7.283,10.54c-0.754,0.903-1.887,1.49-3.171,1.49C1.841,12.03,0,10.231,0,8.012c0-2.22,1.841-4.019,4.111-4.019
	c1.276,0,2.402,0.581,3.157,1.474l4.206-1.91c-0.014-0.116-0.036-0.229-0.036-0.35C11.438,1.437,12.906,0,14.719,0
	C16.53,0,18,1.437,18,3.208C18,4.979,16.53,6.415,14.719,6.415z M14.718,14.368c0.891,0,1.613-0.706,1.613-1.576
	s-0.723-1.575-1.613-1.575s-1.611,0.705-1.611,1.575S13.827,14.368,14.718,14.368z M4.111,5.634c-1.344,0-2.434,1.064-2.434,2.378
	s1.089,2.379,2.434,2.379c1.343,0,2.433-1.065,2.433-2.379S5.454,5.634,4.111,5.634z M14.718,1.632
	c-0.891,0-1.611,0.705-1.611,1.576s0.721,1.576,1.611,1.576s1.613-0.706,1.613-1.576S15.608,1.632,14.718,1.632z"/>
</svg>
